<?xml version="1.0" encoding="UTF-8" standalone="no"?>
<!-- Created with Inkscape (http://www.inkscape.org/) -->
<svg
   xmlns:dc="http://purl.org/dc/elements/1.1/"
   xmlns:cc="http://creativecommons.org/ns#"
   xmlns:rdf="http://www.w3.org/1999/02/22-rdf-syntax-ns#"
   xmlns:svg="http://www.w3.org/2000/svg"
   xmlns="http://www.w3.org/2000/svg"
   xmlns:xlink="http://www.w3.org/1999/xlink"
   xmlns:sodipodi="http://sodipodi.sourceforge.net/DTD/sodipodi-0.dtd"
   xmlns:inkscape="http://www.inkscape.org/namespaces/inkscape"
   width="744.09448819"
   height="1052.3622047"
   id="svg2"
   sodipodi:version="0.32"
   inkscape:version="0.46"
   sodipodi:docname="SummaryBackground.svg"
   inkscape:output_extension="org.inkscape.output.svg.inkscape">
  <defs
     id="defs4">
    <inkscape:perspective
       sodipodi:type="inkscape:persp3d"
       inkscape:vp_x="0 : 526.18109 : 1"
       inkscape:vp_y="0 : 1000 : 0"
       inkscape:vp_z="744.09448 : 526.18109 : 1"
       inkscape:persp3d-origin="372.04724 : 350.78739 : 1"
       id="perspective10" />
    <inkscape:perspective
       id="perspective2390"
       inkscape:persp3d-origin="372.04724 : 350.78739 : 1"
       inkscape:vp_z="744.09448 : 526.18109 : 1"
       inkscape:vp_y="0 : 1000 : 0"
       inkscape:vp_x="0 : 526.18109 : 1"
       sodipodi:type="inkscape:persp3d" />
  </defs>
  <sodipodi:namedview
     id="base"
     pagecolor="#ffffff"
     bordercolor="#666666"
     borderopacity="1.0"
     gridtolerance="10000"
     guidetolerance="10"
     objecttolerance="10"
     inkscape:pageopacity="0.0"
     inkscape:pageshadow="2"
     inkscape:zoom="1.4"
     inkscape:cx="386.54574"
     inkscape:cy="348.22492"
     inkscape:document-units="px"
     inkscape:current-layer="layer1"
     showgrid="false"
     inkscape:window-width="1920"
     inkscape:window-height="1140"
     inkscape:window-x="-4"
     inkscape:window-y="-4" />
  <metadata
     id="metadata7">
    <rdf:RDF>
      <cc:Work
         rdf:about="">
        <dc:format>image/svg+xml</dc:format>
        <dc:type
           rdf:resource="http://purl.org/dc/dcmitype/StillImage" />
      </cc:Work>
    </rdf:RDF>
  </metadata>
  <g
     inkscape:label="Layer 1"
     inkscape:groupmode="layer"
     id="layer1">
    <image
       y="-116.28065"
       x="-94.999992"
       id="image2392"
       height="1143"
       width="1750"
       sodipodi:absref="C:\workspace-skyline\billing\design\pastedpic_04122010_135912.png"
       xlink:href="pastedpic_04122010_135912.png"
       sodipodi:insensitive="true" />
    <path
       style="fill:#f0f0f0;fill-rule:evenodd;stroke:#f0f0f0;stroke-width:1px;stroke-linecap:butt;stroke-linejoin:miter;stroke-opacity:0.66666669000000001;fill-opacity:0.66666669"
       d="M 419.19906,879.66784 L 419.19906,821.89825 C 419.19906,810.71198 419.98663,811.82121 408.8664,811.82121 L 313.44978,811.82121 C 301.19624,811.82121 302.10696,811.14592 302.10696,823.45989 C 302.10696,823.45989 302.10696,909.50794 302.10696,909.50794 C 302.10696,920.65457 300.97228,919.31886 312.74946,919.31886 C 312.74946,919.31886 720.84194,919.31886 720.84194,919.31886 C 732.00603,919.31886 731.42857,919.95603 731.42857,909.0667 C 731.42857,909.0667 731.42857,728.60419 731.42857,728.60419 C 731.42857,718.71296 732.04932,719.36218 720.53901,719.36218 L 161.61027,719.36218 C 151.95848,719.36218 152.74102,718.69967 152.74102,728.7302 L 152.74102,785.72132 C 152.74102,797.11753 151.94304,796.09949 162.56786,796.09949 L 602.61188,796.09949 C 613.83498,796.09949 613.58281,795.73286 613.58281,806.22118 L 613.85067,879.38336 C 613.85067,889.89038 614.20464,889.50504 604.51325,889.50504 L 428.49183,889.50504 C 418.73366,889.50504 419.19906,890.08572 419.19906,879.66784 z"
       id="path3173"
       sodipodi:nodetypes="ccccccccccccccccccccc"
       inkscape:export-xdpi="310.5"
       inkscape:export-ydpi="310.5" />
  </g>
  <g
     inkscape:groupmode="layer"
     id="layer2"
     inkscape:label="path" />
</svg>
