<?xml version="1.0" encoding="UTF-8" standalone="no"?>
<!-- Created with Inkscape (http://www.inkscape.org/) -->
<svg
   xmlns:dc="http://purl.org/dc/elements/1.1/"
   xmlns:cc="http://creativecommons.org/ns#"
   xmlns:rdf="http://www.w3.org/1999/02/22-rdf-syntax-ns#"
   xmlns:svg="http://www.w3.org/2000/svg"
   xmlns="http://www.w3.org/2000/svg"
   xmlns:sodipodi="http://sodipodi.sourceforge.net/DTD/sodipodi-0.dtd"
   xmlns:inkscape="http://www.inkscape.org/namespaces/inkscape"
   width="765"
   height="990"
   id="svg2"
   sodipodi:version="0.32"
   inkscape:version="0.46"
   sodipodi:docname="EmeraldCityBackgroundNoBleed.svg"
   inkscape:output_extension="org.inkscape.output.svg.inkscape"
   version="1.0">
  <defs
     id="defs4">
    <inkscape:perspective
       sodipodi:type="inkscape:persp3d"
       inkscape:vp_x="0 : 526.18109 : 1"
       inkscape:vp_y="0 : 1000 : 0"
       inkscape:vp_z="744.09448 : 526.18109 : 1"
       inkscape:persp3d-origin="372.04724 : 350.78739 : 1"
       id="perspective10" />
    <clipPath
       id="clipPath3678"
       clipPathUnits="userSpaceOnUse">
      <path
         id="path3680"
         d="M 0,792 L 612,792 L 612,0 L 0,0 L 0,792 z" />
    </clipPath>
    <clipPath
       id="clipPath3604"
       clipPathUnits="userSpaceOnUse">
      <path
         id="path3606"
         d="M 0,792 L 612,792 L 612,0 L 0,0 L 0,792 z" />
    </clipPath>
    <clipPath
       id="clipPath3588"
       clipPathUnits="userSpaceOnUse">
      <path
         id="path3590"
         d="M 0,792 L 612,792 L 612,0 L 0,0 L 0,792 z" />
    </clipPath>
    <clipPath
       id="clipPath3562"
       clipPathUnits="userSpaceOnUse">
      <path
         id="path3564"
         d="M 32.0889,783.173 L 69.7256,783.173 L 69.7256,613.837 L 32.0889,613.837 L 32.0889,783.173 z" />
    </clipPath>
    <clipPath
       id="clipPath3546"
       clipPathUnits="userSpaceOnUse">
      <path
         id="path3548"
         d="M 42.8911,769.507 L 87.4966,769.507 L 87.4966,635.168 L 42.8911,635.168 L 42.8911,769.507 z" />
    </clipPath>
    <clipPath
       id="clipPath3530"
       clipPathUnits="userSpaceOnUse">
      <path
         id="path3532"
         d="M 7.69385,766.506 L 32.0889,766.506 L 32.0889,639.838 L 7.69385,639.838 L 7.69385,766.506 z" />
    </clipPath>
    <clipPath
       id="clipPath3514"
       clipPathUnits="userSpaceOnUse">
      <path
         id="path3516"
         d="M 20.5884,782.84 L 56.1343,782.84 L 56.1343,662.838 L 20.5884,662.838 L 20.5884,782.84 z" />
    </clipPath>
    <clipPath
       id="clipPath3498"
       clipPathUnits="userSpaceOnUse">
      <path
         id="path3500"
         d="M 24,753.321 L 587.4,753.321 L 587.4,30.0244 L 24,30.0244 L 24,753.321 z" />
    </clipPath>
    <clipPath
       id="clipPath3490"
       clipPathUnits="userSpaceOnUse">
      <path
         id="path3492"
         d="M 0,792 L 612,792 L 612,0 L 0,0 L 0,792 z" />
    </clipPath>
    <clipPath
       id="clipPath3470"
       clipPathUnits="userSpaceOnUse">
      <path
         id="path3472"
         d="M 388.39,126.654 L 517.172,126.654 L 517.172,198.405 L 388.39,198.405 L 388.39,126.654 z" />
    </clipPath>
    <clipPath
       id="clipPath3458"
       clipPathUnits="userSpaceOnUse">
      <path
         id="path3460"
         d="M 550.618,61.381 L 562.595,61.381 L 562.595,74.835 L 550.618,74.835 L 550.618,61.381 z" />
    </clipPath>
    <clipPath
       id="clipPath3446"
       clipPathUnits="userSpaceOnUse">
      <path
         id="path3448"
         d="M 533.147,61.381 L 545.622,61.381 L 545.622,74.835 L 533.147,74.835 L 533.147,61.381 z" />
    </clipPath>
    <clipPath
       id="clipPath3434"
       clipPathUnits="userSpaceOnUse">
      <path
         id="path3436"
         d="M 515.677,61.381 L 528.151,61.381 L 528.151,74.835 L 515.677,74.835 L 515.677,61.381 z" />
    </clipPath>
    <clipPath
       id="clipPath3422"
       clipPathUnits="userSpaceOnUse">
      <path
         id="path3424"
         d="M 499.201,61.381 L 510.178,61.381 L 510.178,74.835 L 499.201,74.835 L 499.201,61.381 z" />
    </clipPath>
    <clipPath
       id="clipPath3410"
       clipPathUnits="userSpaceOnUse">
      <path
         id="path3412"
         d="M 481.729,61.381 L 493.71,61.381 L 493.71,74.835 L 481.729,74.835 L 481.729,61.381 z" />
    </clipPath>
    <clipPath
       id="clipPath3398"
       clipPathUnits="userSpaceOnUse">
      <path
         id="path3400"
         d="M 465.259,61.381 L 475.242,61.381 L 475.242,74.835 L 465.259,74.835 L 465.259,61.381 z" />
    </clipPath>
    <clipPath
       id="clipPath3386"
       clipPathUnits="userSpaceOnUse">
      <path
         id="path3388"
         d="M 447.79,61.381 L 458.273,61.381 L 458.273,74.835 L 447.79,74.835 L 447.79,61.381 z" />
    </clipPath>
    <clipPath
       id="clipPath3374"
       clipPathUnits="userSpaceOnUse">
      <path
         id="path3376"
         d="M 428.822,61.381 L 442.799,61.381 L 442.799,74.835 L 428.822,74.835 L 428.822,61.381 z" />
    </clipPath>
    <clipPath
       id="clipPath3362"
       clipPathUnits="userSpaceOnUse">
      <path
         id="path3364"
         d="M 412.348,61.381 L 424.331,61.381 L 424.331,74.835 L 412.348,74.835 L 412.348,61.381 z" />
    </clipPath>
    <clipPath
       id="clipPath3350"
       clipPathUnits="userSpaceOnUse">
      <path
         id="path3352"
         d="M 394.379,61.381 L 408.355,61.381 L 408.355,74.835 L 394.379,74.835 L 394.379,61.381 z" />
    </clipPath>
    <clipPath
       id="clipPath3338"
       clipPathUnits="userSpaceOnUse">
      <path
         id="path3340"
         d="M 378.409,61.381 L 389.387,61.381 L 389.387,74.835 L 378.409,74.835 L 378.409,61.381 z" />
    </clipPath>
    <clipPath
       id="clipPath3326"
       clipPathUnits="userSpaceOnUse">
      <path
         id="path3328"
         d="M 361.435,61.381 L 371.918,61.381 L 371.918,74.835 L 361.435,74.835 L 361.435,61.381 z" />
    </clipPath>
    <clipPath
       id="clipPath3314"
       clipPathUnits="userSpaceOnUse">
      <path
         id="path3316"
         d="M 332.984,57.394 L 572.577,57.394 L 572.577,200.896 L 332.984,200.896 L 332.984,57.394 z" />
    </clipPath>
    <clipPath
       id="clipPath3302"
       clipPathUnits="userSpaceOnUse">
      <path
         id="path3304"
         d="M 332.984,57.394 L 572.577,57.394 L 572.577,200.896 L 332.984,200.896 L 332.984,57.394 z" />
    </clipPath>
    <clipPath
       id="clipPath3290"
       clipPathUnits="userSpaceOnUse">
      <path
         id="path3292"
         d="M 332.984,57.394 L 572.577,57.394 L 572.577,200.896 L 332.984,200.896 L 332.984,57.394 z" />
    </clipPath>
    <clipPath
       id="clipPath3278"
       clipPathUnits="userSpaceOnUse">
      <path
         id="path3280"
         d="M 332.984,57.394 L 572.577,57.394 L 572.577,200.896 L 332.984,200.896 L 332.984,57.394 z" />
    </clipPath>
    <clipPath
       id="clipPath3266"
       clipPathUnits="userSpaceOnUse">
      <path
         id="path3268"
         d="M 332.984,57.394 L 572.577,57.394 L 572.577,200.896 L 332.984,200.896 L 332.984,57.394 z" />
    </clipPath>
    <clipPath
       id="clipPath3254"
       clipPathUnits="userSpaceOnUse">
      <path
         id="path3256"
         d="M 332.984,57.394 L 572.577,57.394 L 572.577,200.896 L 332.984,200.896 L 332.984,57.394 z" />
    </clipPath>
    <clipPath
       id="clipPath3242"
       clipPathUnits="userSpaceOnUse">
      <path
         id="path3244"
         d="M 332.984,57.394 L 572.577,57.394 L 572.577,200.896 L 332.984,200.896 L 332.984,57.394 z" />
    </clipPath>
    <clipPath
       id="clipPath3230"
       clipPathUnits="userSpaceOnUse">
      <path
         id="path3232"
         d="M 332.984,57.394 L 572.577,57.394 L 572.577,200.896 L 332.984,200.896 L 332.984,57.394 z" />
    </clipPath>
    <clipPath
       id="clipPath3218"
       clipPathUnits="userSpaceOnUse">
      <path
         id="path3220"
         d="M 332.984,57.394 L 572.577,57.394 L 572.577,200.896 L 332.984,200.896 L 332.984,57.394 z" />
    </clipPath>
    <clipPath
       id="clipPath3206"
       clipPathUnits="userSpaceOnUse">
      <path
         id="path3208"
         d="M 332.984,57.394 L 572.577,57.394 L 572.577,200.896 L 332.984,200.896 L 332.984,57.394 z" />
    </clipPath>
    <clipPath
       id="clipPath3184"
       clipPathUnits="userSpaceOnUse">
      <path
         id="path3186"
         d="M 0,792 L 612,792 L 612,0 L 0,0 L 0,792 z" />
    </clipPath>
    <clipPath
       id="clipPath3172"
       clipPathUnits="userSpaceOnUse">
      <path
         id="path3174"
         d="M 371.842,292.074 L 541.741,292.074 L 541.741,373.556 L 371.842,373.556 L 371.842,292.074 z" />
    </clipPath>
    <clipPath
       id="clipPath3160"
       clipPathUnits="userSpaceOnUse">
      <path
         id="path3162"
         d="M 321.988,293.637 L 372.905,293.637 L 372.905,316.929 L 321.988,316.929 L 321.988,293.637 z" />
    </clipPath>
    <clipPath
       id="clipPath3148"
       clipPathUnits="userSpaceOnUse">
      <path
         id="path3150"
         d="M 545.799,224.813 L 559.057,224.813 L 559.057,235.399 L 545.799,235.399 L 545.799,224.813 z" />
    </clipPath>
    <clipPath
       id="clipPath3136"
       clipPathUnits="userSpaceOnUse">
      <path
         id="path3138"
         d="M 529.358,224.813 L 542.612,224.813 L 542.612,235.399 L 529.358,235.399 L 529.358,224.813 z" />
    </clipPath>
    <clipPath
       id="clipPath3124"
       clipPathUnits="userSpaceOnUse">
      <path
         id="path3126"
         d="M 512.383,224.813 L 525.642,224.813 L 525.642,235.399 L 512.383,235.399 L 512.383,224.813 z" />
    </clipPath>
    <clipPath
       id="clipPath3112"
       clipPathUnits="userSpaceOnUse">
      <path
         id="path3114"
         d="M 496.474,224.813 L 508.675,224.813 L 508.675,235.399 L 496.474,235.399 L 496.474,224.813 z" />
    </clipPath>
    <clipPath
       id="clipPath3100"
       clipPathUnits="userSpaceOnUse">
      <path
         id="path3102"
         d="M 479.507,224.813 L 492.23,224.813 L 492.23,235.399 L 479.507,235.399 L 479.507,224.813 z" />
    </clipPath>
    <clipPath
       id="clipPath3088"
       clipPathUnits="userSpaceOnUse">
      <path
         id="path3090"
         d="M 463.591,224.813 L 474.727,224.813 L 474.727,235.399 L 463.591,235.399 L 463.591,224.813 z" />
    </clipPath>
    <clipPath
       id="clipPath3076"
       clipPathUnits="userSpaceOnUse">
      <path
         id="path3078"
         d="M 447.151,224.813 L 458.291,224.813 L 458.291,235.399 L 447.151,235.399 L 447.151,224.813 z" />
    </clipPath>
    <clipPath
       id="clipPath3064"
       clipPathUnits="userSpaceOnUse">
      <path
         id="path3066"
         d="M 428.589,224.813 L 443.438,224.813 L 443.438,235.399 L 428.589,235.399 L 428.589,224.813 z" />
    </clipPath>
    <clipPath
       id="clipPath3052"
       clipPathUnits="userSpaceOnUse">
      <path
         id="path3054"
         d="M 413.21,224.813 L 425.939,224.813 L 425.939,235.399 L 413.21,235.399 L 413.21,224.813 z" />
    </clipPath>
    <clipPath
       id="clipPath3040"
       clipPathUnits="userSpaceOnUse">
      <path
         id="path3042"
         d="M 395.176,224.813 L 410.026,224.813 L 410.026,235.399 L 395.176,235.399 L 395.176,224.813 z" />
    </clipPath>
    <clipPath
       id="clipPath3028"
       clipPathUnits="userSpaceOnUse">
      <path
         id="path3030"
         d="M 380.326,224.813 L 391.996,224.813 L 391.996,235.399 L 380.326,235.399 L 380.326,224.813 z" />
    </clipPath>
    <clipPath
       id="clipPath3016"
       clipPathUnits="userSpaceOnUse">
      <path
         id="path3018"
         d="M 363.888,224.813 L 375.023,224.813 L 375.023,235.399 L 363.888,235.399 L 363.888,224.813 z" />
    </clipPath>
    <clipPath
       id="clipPath3004"
       clipPathUnits="userSpaceOnUse">
      <path
         id="path3006"
         d="M 315.624,220.576 L 570.193,220.576 L 570.193,373.049 L 315.624,373.049 L 315.624,220.576 z" />
    </clipPath>
    <clipPath
       id="clipPath2992"
       clipPathUnits="userSpaceOnUse">
      <path
         id="path2994"
         d="M 315.624,220.576 L 570.193,220.576 L 570.193,373.049 L 315.624,373.049 L 315.624,220.576 z" />
    </clipPath>
    <clipPath
       id="clipPath2980"
       clipPathUnits="userSpaceOnUse">
      <path
         id="path2982"
         d="M 315.624,220.576 L 570.193,220.576 L 570.193,373.049 L 315.624,373.049 L 315.624,220.576 z" />
    </clipPath>
    <clipPath
       id="clipPath2968"
       clipPathUnits="userSpaceOnUse">
      <path
         id="path2970"
         d="M 315.624,220.576 L 570.193,220.576 L 570.193,373.049 L 315.624,373.049 L 315.624,220.576 z" />
    </clipPath>
    <clipPath
       id="clipPath2956"
       clipPathUnits="userSpaceOnUse">
      <path
         id="path2958"
         d="M 315.624,220.576 L 570.193,220.576 L 570.193,373.049 L 315.624,373.049 L 315.624,220.576 z" />
    </clipPath>
    <clipPath
       id="clipPath2944"
       clipPathUnits="userSpaceOnUse">
      <path
         id="path2946"
         d="M 315.624,220.576 L 570.193,220.576 L 570.193,373.049 L 315.624,373.049 L 315.624,220.576 z" />
    </clipPath>
    <clipPath
       id="clipPath2932"
       clipPathUnits="userSpaceOnUse">
      <path
         id="path2934"
         d="M 315.624,220.576 L 570.193,220.576 L 570.193,373.049 L 315.624,373.049 L 315.624,220.576 z" />
    </clipPath>
    <clipPath
       id="clipPath2912"
       clipPathUnits="userSpaceOnUse">
      <path
         id="path2914"
         d="M 0,792 L 612,792 L 612,0 L 0,0 L 0,792 z" />
    </clipPath>
    <clipPath
       id="clipPath2900"
       clipPathUnits="userSpaceOnUse">
      <path
         id="path2902"
         d="M 116.585,288.049 L 295.722,288.049 L 295.722,368.771 L 116.585,368.771 L 116.585,288.049 z" />
    </clipPath>
    <clipPath
       id="clipPath2888"
       clipPathUnits="userSpaceOnUse">
      <path
         id="path2890"
         d="M 183.976,210.131 L 208.12,210.131 L 208.12,221.34 L 183.976,221.34 L 183.976,210.131 z" />
    </clipPath>
    <clipPath
       id="clipPath2876"
       clipPathUnits="userSpaceOnUse">
      <path
         id="path2878"
         d="M 43.024,274.04 L 96.931,274.04 L 96.931,320.001 L 43.024,320.001 L 43.024,274.04 z" />
    </clipPath>
    <clipPath
       id="clipPath2864"
       clipPathUnits="userSpaceOnUse">
      <path
         id="path2866"
         d="M 281.12,214.616 L 297.972,214.616 L 297.972,233.681 L 281.12,233.681 L 281.12,214.616 z" />
    </clipPath>
    <clipPath
       id="clipPath2852"
       clipPathUnits="userSpaceOnUse">
      <path
         id="path2854"
         d="M 263.144,214.616 L 279.999,214.616 L 279.999,233.681 L 263.144,233.681 L 263.144,214.616 z" />
    </clipPath>
    <clipPath
       id="clipPath2840"
       clipPathUnits="userSpaceOnUse">
      <path
         id="path2842"
         d="M 245.741,214.616 L 262.026,214.616 L 262.026,233.681 L 245.741,233.681 L 245.741,214.616 z" />
    </clipPath>
    <clipPath
       id="clipPath2828"
       clipPathUnits="userSpaceOnUse">
      <path
         id="path2830"
         d="M 227.776,214.616 L 244.617,214.616 L 244.617,233.681 L 227.776,233.681 L 227.776,214.616 z" />
    </clipPath>
    <clipPath
       id="clipPath2816"
       clipPathUnits="userSpaceOnUse">
      <path
         id="path2818"
         d="M 209.803,214.616 L 226.652,214.616 L 226.652,233.681 L 209.803,233.681 L 209.803,214.616 z" />
    </clipPath>
    <clipPath
       id="clipPath2804"
       clipPathUnits="userSpaceOnUse">
      <path
         id="path2806"
         d="M 192.397,214.616 L 208.681,214.616 L 208.681,233.681 L 192.397,233.681 L 192.397,214.616 z" />
    </clipPath>
    <clipPath
       id="clipPath2792"
       clipPathUnits="userSpaceOnUse">
      <path
         id="path2794"
         d="M 174.432,214.616 L 191.272,214.616 L 191.272,233.681 L 174.432,233.681 L 174.432,214.616 z" />
    </clipPath>
    <clipPath
       id="clipPath2780"
       clipPathUnits="userSpaceOnUse">
      <path
         id="path2782"
         d="M 158.702,214.616 L 171.619,214.616 L 171.619,233.681 L 158.702,233.681 L 158.702,214.616 z" />
    </clipPath>
    <clipPath
       id="clipPath2768"
       clipPathUnits="userSpaceOnUse">
      <path
         id="path2770"
         d="M 140.735,214.616 L 153.649,214.616 L 153.649,233.681 L 140.735,233.681 L 140.735,214.616 z" />
    </clipPath>
    <clipPath
       id="clipPath2756"
       clipPathUnits="userSpaceOnUse">
      <path
         id="path2758"
         d="M 122.764,214.616 L 135.68,214.616 L 135.68,233.681 L 122.764,233.681 L 122.764,214.616 z" />
    </clipPath>
    <clipPath
       id="clipPath2744"
       clipPathUnits="userSpaceOnUse">
      <path
         id="path2746"
         d="M 105.356,214.616 L 118.273,214.616 L 118.273,233.681 L 105.356,233.681 L 105.356,214.616 z" />
    </clipPath>
    <clipPath
       id="clipPath2732"
       clipPathUnits="userSpaceOnUse">
      <path
         id="path2734"
         d="M 87.387,214.616 L 100.301,214.616 L 100.301,233.681 L 87.387,233.681 L 87.387,214.616 z" />
    </clipPath>
    <clipPath
       id="clipPath2720"
       clipPathUnits="userSpaceOnUse">
      <path
         id="path2722"
         d="M 43.024,210.131 L 312.567,210.131 L 312.567,371.572 L 43.024,371.572 L 43.024,210.131 z" />
    </clipPath>
    <clipPath
       id="clipPath2708"
       clipPathUnits="userSpaceOnUse">
      <path
         id="path2710"
         d="M 43.024,210.131 L 312.567,210.131 L 312.567,371.572 L 43.024,371.572 L 43.024,210.131 z" />
    </clipPath>
    <clipPath
       id="clipPath2696"
       clipPathUnits="userSpaceOnUse">
      <path
         id="path2698"
         d="M 43.024,210.131 L 312.567,210.131 L 312.567,371.572 L 43.024,371.572 L 43.024,210.131 z" />
    </clipPath>
    <clipPath
       id="clipPath2684"
       clipPathUnits="userSpaceOnUse">
      <path
         id="path2686"
         d="M 43.024,210.131 L 312.567,210.131 L 312.567,371.572 L 43.024,371.572 L 43.024,210.131 z" />
    </clipPath>
    <clipPath
       id="clipPath2672"
       clipPathUnits="userSpaceOnUse">
      <path
         id="path2674"
         d="M 43.024,210.131 L 312.567,210.131 L 312.567,371.572 L 43.024,371.572 L 43.024,210.131 z" />
    </clipPath>
    <clipPath
       id="clipPath2660"
       clipPathUnits="userSpaceOnUse">
      <path
         id="path2662"
         d="M 43.024,210.131 L 312.567,210.131 L 312.567,371.572 L 43.024,371.572 L 43.024,210.131 z" />
    </clipPath>
    <clipPath
       id="clipPath2644"
       clipPathUnits="userSpaceOnUse">
      <path
         id="path2646"
         d="M 89.072,239.842 L 303.019,239.842 L 303.019,353.637 L 89.072,353.637 L 89.072,239.842 z" />
    </clipPath>
    <clipPath
       id="clipPath2624"
       clipPathUnits="userSpaceOnUse">
      <path
         id="path2626"
         d="M 0,792 L 612,792 L 612,0 L 0,0 L 0,792 z" />
    </clipPath>
    <clipPath
       id="clipPath2604"
       clipPathUnits="userSpaceOnUse">
      <path
         id="path2606"
         d="M 242.504,77.231 L 300.844,77.231 L 300.844,106.507 L 242.504,106.507 L 242.504,77.231 z" />
    </clipPath>
    <clipPath
       id="clipPath2594"
       clipPathUnits="userSpaceOnUse">
      <path
         id="path2596"
         d="M 0,792 L 612,792 L 612,0 L 0,0 L 0,792 z" />
    </clipPath>
    <clipPath
       id="clipPath2582"
       clipPathUnits="userSpaceOnUse">
      <path
         id="path2584"
         d="M 242.504,91.867 L 271.011,91.867 L 271.011,121.146 L 242.504,121.146 L 242.504,91.867 z" />
    </clipPath>
    <clipPath
       id="clipPath2572"
       clipPathUnits="userSpaceOnUse">
      <path
         id="path2574"
         d="M 0,792 L 612,792 L 612,0 L 0,0 L 0,792 z" />
    </clipPath>
    <clipPath
       id="clipPath2560"
       clipPathUnits="userSpaceOnUse">
      <path
         id="path2562"
         d="M 70.612,108.266 L 259.552,108.266 L 259.552,196.1 L 70.612,196.1 L 70.612,108.266 z" />
    </clipPath>
    <clipPath
       id="clipPath2540"
       clipPathUnits="userSpaceOnUse">
      <path
         id="path2542"
         d="M 70.612,108.266 L 259.552,108.266 L 259.552,196.1 L 70.612,196.1 L 70.612,108.266 z" />
    </clipPath>
    <clipPath
       id="clipPath2528"
       clipPathUnits="userSpaceOnUse">
      <path
         id="path2530"
         d="M 129.804,33.313 L 155.659,33.313 L 155.659,74.789 L 129.804,74.789 L 129.804,33.313 z" />
    </clipPath>
    <clipPath
       id="clipPath2516"
       clipPathUnits="userSpaceOnUse">
      <path
         id="path2518"
         d="M 170.244,52.22 L 196.098,52.22 L 196.098,140.055 L 170.244,140.055 L 170.244,52.22 z" />
    </clipPath>
    <clipPath
       id="clipPath2452"
       clipPathUnits="userSpaceOnUse">
      <path
         id="path2454"
         d="M 0,792 L 612,792 L 612,0 L 0,0 L 0,792 z" />
    </clipPath>
    <clipPath
       id="clipPath2426"
       clipPathUnits="userSpaceOnUse">
      <path
         id="path2428"
         d="M 18.5552,759.412 L 594.555,759.412 L 594.555,19.9395 L 18.5552,19.9395 L 18.5552,759.412 z" />
    </clipPath>
    <clipPath
       id="clipPath2418"
       clipPathUnits="userSpaceOnUse">
      <path
         id="path2420"
         d="M 0,792 L 612,792 L 612,0 L 0,0 L 0,792 z" />
    </clipPath>
    <clipPath
       id="clipPath2398"
       clipPathUnits="userSpaceOnUse">
      <path
         id="path2400"
         d="M 0,792 L 612,792 L 612,0 L 0,0 L 0,792 z" />
    </clipPath>
    <inkscape:perspective
       id="perspective2390"
       inkscape:persp3d-origin="372.04724 : 350.78739 : 1"
       inkscape:vp_z="744.09448 : 526.18109 : 1"
       inkscape:vp_y="0 : 1000 : 0"
       inkscape:vp_x="0 : 526.18109 : 1"
       sodipodi:type="inkscape:persp3d" />
  </defs>
  <sodipodi:namedview
     id="base"
     pagecolor="#ffffff"
     bordercolor="#666666"
     borderopacity="1.0"
     gridtolerance="10000"
     guidetolerance="10"
     objecttolerance="10"
     inkscape:pageopacity="0.0"
     inkscape:pageshadow="2"
     inkscape:zoom="0.35355339"
     inkscape:cx="307.46784"
     inkscape:cy="436.11881"
     inkscape:document-units="mm"
     inkscape:current-layer="layer1"
     showgrid="false"
     inkscape:window-width="1920"
     inkscape:window-height="1140"
     inkscape:window-x="0"
     inkscape:window-y="26"
     showguides="true"
     inkscape:guide-bbox="true" />
  <metadata
     id="metadata7">
    <rdf:RDF>
      <cc:Work
         rdf:about="">
        <dc:format>image/svg+xml</dc:format>
        <dc:type
           rdf:resource="http://purl.org/dc/dcmitype/StillImage" />
      </cc:Work>
    </rdf:RDF>
  </metadata>
  <g
     inkscape:label="Layer 1"
     inkscape:groupmode="layer"
     id="layer1">
    <g
       id="g3578"
       transform="matrix(1.25,0,0,-1.25,-46.547411,381.4976)" />
    <path
       transform="matrix(1.6113436,0,0,1.6113436,-775.0897,-859.16186)"
       d="M 728.43752,85.732719 A 9.3526783,9.3526783 0 1 1 709.73216,85.732719 A 9.3526783,9.3526783 0 1 1 728.43752,85.732719 z"
       sodipodi:ry="9.3526783"
       sodipodi:rx="9.3526783"
       sodipodi:cy="85.732719"
       sodipodi:cx="719.08484"
       id="path3598"
       style="fill:#2f0046;fill-opacity:1;stroke:#000000;stroke-width:0.5;stroke-linecap:butt;stroke-miterlimit:4;stroke-dasharray:none;stroke-dashoffset:0;stroke-opacity:1"
       sodipodi:type="arc" />
    <g
       id="g5273"
       transform="translate(447.87843,-987.59336)"
       inkscape:export-filename="C:\workspace-skyline\billing\presentation\images\art\g5458.png"
       inkscape:export-xdpi="92.75"
       inkscape:export-ydpi="92.75">
      <g
         transform="matrix(0.8575959,0,0,-0.8575959,-23.102889,1176.5583)"
         id="g4152">
        <g
           id="g3510">
          <g
             id="g3512" />
          <g
             id="g3518">
            <g
               style="opacity:0.77000397"
               clip-path="url(#clipPath3514)"
               id="g3520">
              <g
                 transform="translate(56.1343,772.1729)"
                 id="g3522">
                <path
                   d="M 0,0 L 0,-109.334 L -26.486,-102.002 L -35.546,10.667 L 0,0 z"
                   style="fill:#098137;fill-opacity:1;fill-rule:nonzero;stroke:none"
                   id="path3524" />
              </g>
            </g>
          </g>
        </g>
        <g
           id="g3526">
          <g
             id="g3528" />
          <g
             id="g3534">
            <g
               style="opacity:0.869995"
               clip-path="url(#clipPath3530)"
               id="g3536">
              <g
                 transform="translate(7.6938,766.5059)"
                 id="g3538">
                <path
                   d="M 0,0 L 16.03,-125.003 L 24.395,-126.668 L 24.395,-9.667 L 0,0 z"
                   style="fill:#11ab4a;fill-opacity:1;fill-rule:nonzero;stroke:none"
                   id="path3540" />
              </g>
            </g>
          </g>
        </g>
        <g
           id="g3542">
          <g
             id="g3544" />
          <g
             id="g3550">
            <g
               style="opacity:0.869995"
               clip-path="url(#clipPath3546)"
               id="g3552">
              <g
                 transform="translate(42.8911,635.1685)"
                 id="g3554">
                <path
                   d="M 0,0 L 0,120.67 L 44.605,134.339 L 23.348,8.001 L 0,0 z"
                   style="fill:#11ab4a;fill-opacity:1;fill-rule:nonzero;stroke:none"
                   id="path3556" />
              </g>
            </g>
          </g>
        </g>
        <g
           id="g3558">
          <g
             id="g3560" />
          <g
             id="g3566">
            <g
               style="opacity:0.77000397"
               clip-path="url(#clipPath3562)"
               id="g3568">
              <g
                 transform="translate(32.0889,772.1729)"
                 id="g3570">
                <path
                   d="M 0,0 L 0,-158.336 L 22.998,-150.337 L 37.637,11 L 0,0 z"
                   style="fill:#6ec72d;fill-opacity:1;fill-rule:nonzero;stroke:none"
                   id="path3572" />
              </g>
            </g>
          </g>
        </g>
      </g>
      <path
         style="fill:#5a8e46;fill-opacity:1;fill-rule:evenodd;stroke:none;stroke-width:1px;stroke-linecap:butt;stroke-linejoin:miter;stroke-opacity:1"
         d="M 82.902354,543.56791 L 679.47635,543.59948 C 685.39404,543.80421 687.94963,545.77499 690.4356,548.00807 C 693.13615,550.4339 694.96931,554.63053 695.05479,558.23091 L 695.05479,1437.3614 C 695.05479,1441.4336 693.51918,1445.3548 691.07732,1447.7335 C 687.79992,1450.9262 685.04796,1452.5318 679.83936,1452.658 L 4.536625,1452.6107 C 0.059078,1452.007 -3.319876,1449.8278 -5.375497,1447.6546 C -7.144023,1445.7849 -9.510809,1441.7358 -9.447674,1436.8744 L -10.584095,685.93233 C -10.798272,674.94378 -23.146931,667.98028 -31.988766,667.92038 L -31.988766,688.29771 L -31.988766,1462.9142 L 706.39179,1464.5957 L 713.65937,515.65005 L 82.953214,516.73331 L 82.902354,543.56791 z"
         id="path4180"
         sodipodi:nodetypes="ccsccsccsccccccccc" />
      <path
         sodipodi:nodetypes="ccccccccccccccsscssssscc"
         id="path4178"
         d="M 82.950154,504.42969 L 705.19093,504.42969 C 712.70394,504.46125 716.59226,509.41731 716.59226,509.41731 C 716.59226,509.41731 720.696,513.69571 720.66444,519.53565 L 720.66444,1463.0657 C 720.66444,1470.2979 716.02158,1474.1283 716.02158,1474.1283 C 716.02158,1474.1283 712.29836,1478.5926 705.02158,1478.5479 L -16.27305,1478.5479 C -23.594479,1478.5479 -27.613921,1473.9497 -27.613921,1473.9497 C -27.613921,1473.9497 -32.033565,1470.1422 -31.988922,1462.419 C -31.04179,1308.0364 -31.988766,845.64601 -31.988766,691.26051 C -31.988766,681.53779 -31.988766,677.85382 -31.988766,677.85382 C -24.575289,677.9422 -17.971285,685.19921 -17.970836,691.5293 L -17.718298,1445.1608 C -17.723714,1449.8012 -16.100938,1453.2183 -13.859663,1455.649 C -10.378274,1459.4246 -6.732889,1460.9444 -1.745261,1461.0076 C 3.242369,1461.0707 687.74696,1461.0076 687.74696,1461.0076 C 692.86086,1460.9444 696.58581,1459.3661 699.80568,1455.578 C 703.02554,1451.7899 703.46746,1448.5701 703.53061,1445.2239 C 703.59374,1441.8778 703.46365,550.37139 703.46365,550.37139 C 703.32973,544.52318 700.22131,541.07627 699.20299,540.018 C 698.0646,538.83497 694.39941,535.22109 687.36816,535.26573 C 687.36816,535.26573 82.950154,535.45513 82.950154,535.45513 L 82.950154,504.42969 z"
         style="fill:#00743c;fill-opacity:1;fill-rule:evenodd;stroke:none;stroke-width:1px;stroke-linecap:butt;stroke-linejoin:miter;stroke-opacity:1" />
      <g
         id="g3600"
         transform="matrix(1.112546,0,0,-1.112546,-40.708181,1379.4071)">
        <g
           clip-path="url(#clipPath3604)"
           id="g3602">
          <g
             transform="translate(114.8818,769.332)"
             id="g3608">
            <path
               id="path3610"
               style="fill:#ffffff;fill-opacity:1;fill-rule:nonzero;stroke:none"
               d="M 0,0 C 0.936,-0.576 2.304,-1.056 3.744,-1.056 C 5.88,-1.056 7.128,0.072 7.128,1.704 C 7.128,3.216 6.265,4.08 4.081,4.92 C 1.44,5.856 -0.192,7.225 -0.192,9.504 C -0.192,12.025 1.896,13.897 5.041,13.897 C 6.697,13.897 7.896,13.513 8.617,13.105 L 8.041,11.401 C 7.513,11.689 6.433,12.169 4.968,12.169 C 2.76,12.169 1.92,10.849 1.92,9.745 C 1.92,8.232 2.904,7.488 5.136,6.625 C 7.873,5.568 9.265,4.248 9.265,1.872 C 9.265,-0.624 7.417,-2.809 3.6,-2.809 C 2.04,-2.809 0.336,-2.329 -0.528,-1.752 L 0,0 z" />
          </g>
          <g
             transform="translate(127.002,782.9648)"
             id="g3612">
            <path
               id="path3614"
               style="fill:#ffffff;fill-opacity:1;fill-rule:nonzero;stroke:none"
               d="M 0,0 L 2.088,0 L 2.088,-7.8 L 2.16,-7.8 C 2.592,-7.176 3.024,-6.601 3.432,-6.072 L 8.376,0 L 10.969,0 L 5.112,-6.864 L 11.425,-16.177 L 8.953,-16.177 L 3.624,-8.232 L 2.088,-10.009 L 2.088,-16.177 L 0,-16.177 L 0,0 z" />
          </g>
          <g
             transform="translate(143.4419,766.7876)"
             id="g3616">
            <path
               id="path3618"
               style="fill:#ffffff;fill-opacity:1;fill-rule:nonzero;stroke:none"
               d="M 0,0 L 0,6.865 L -5.112,16.177 L -2.736,16.177 L -0.456,11.713 C 0.168,10.489 0.648,9.505 1.152,8.377 L 1.2,8.377 C 1.656,9.433 2.208,10.489 2.833,11.713 L 5.161,16.177 L 7.537,16.177 L 2.112,6.889 L 2.112,0 L 0,0 z" />
          </g>
          <g
             transform="translate(152.6577,782.9648)"
             id="g3620">
            <path
               id="path3622"
               style="fill:#ffffff;fill-opacity:1;fill-rule:nonzero;stroke:none"
               d="M 0,0 L 2.088,0 L 2.088,-14.425 L 9,-14.425 L 9,-16.177 L 0,-16.177 L 0,0 z" />
          </g>
          <path
             id="path3624"
             style="fill:#ffffff;fill-opacity:1;fill-rule:nonzero;stroke:none"
             d="M 166.073,766.788 L 163.985,766.788 L 163.985,782.965 L 166.073,782.965 L 166.073,766.788 z" />
          <g
             transform="translate(169.7212,766.7876)"
             id="g3626">
            <path
               id="path3628"
               style="fill:#ffffff;fill-opacity:1;fill-rule:nonzero;stroke:none"
               d="M 0,0 L 0,16.177 L 2.28,16.177 L 7.464,7.993 C 8.665,6.097 9.601,4.393 10.369,2.736 L 10.417,2.76 C 10.225,4.92 10.177,6.889 10.177,9.409 L 10.177,16.177 L 12.145,16.177 L 12.145,0 L 10.033,0 L 4.896,8.208 C 3.768,10.009 2.688,11.857 1.872,13.609 L 1.8,13.585 C 1.92,11.545 1.968,9.601 1.968,6.913 L 1.968,0 L 0,0 z" />
          </g>
          <g
             transform="translate(193.8896,774.3721)"
             id="g3630">
            <path
               id="path3632"
               style="fill:#ffffff;fill-opacity:1;fill-rule:nonzero;stroke:none"
               d="M 0,0 L -6.289,0 L -6.289,-5.833 L 0.72,-5.833 L 0.72,-7.584 L -8.376,-7.584 L -8.376,8.593 L 0.36,8.593 L 0.36,6.841 L -6.289,6.841 L -6.289,1.729 L 0,1.729 L 0,0 z" />
          </g>
          <path
             id="path3634"
             style="fill:#ffffff;fill-opacity:1;fill-rule:nonzero;stroke:none"
             d="M 115.629,753.987 L 114.41,753.987 L 114.41,763.428 L 115.629,763.428 L 115.629,753.987 z" />
          <g
             transform="translate(117.7563,753.9873)"
             id="g3636">
            <path
               id="path3638"
               style="fill:#ffffff;fill-opacity:1;fill-rule:nonzero;stroke:none"
               d="M 0,0 L 0,9.441 L 1.331,9.441 L 4.356,4.665 C 5.057,3.558 5.603,2.563 6.051,1.597 L 6.08,1.611 C 5.967,2.872 5.939,4.02 5.939,5.491 L 5.939,9.441 L 7.088,9.441 L 7.088,0 L 5.855,0 L 2.858,4.791 C 2.199,5.841 1.569,6.92 1.093,7.942 L 1.051,7.928 C 1.121,6.738 1.149,5.603 1.149,4.034 L 1.149,0 L 0,0 z" />
          </g>
          <g
             transform="translate(126.9683,753.9873)"
             id="g3640">
            <path
               id="path3642"
               style="fill:#ffffff;fill-opacity:1;fill-rule:nonzero;stroke:none"
               d="M 0,0 L 0,9.441 L 1.331,9.441 L 4.356,4.665 C 5.057,3.558 5.603,2.563 6.051,1.597 L 6.08,1.611 C 5.967,2.872 5.939,4.02 5.939,5.491 L 5.939,9.441 L 7.088,9.441 L 7.088,0 L 5.855,0 L 2.858,4.791 C 2.199,5.841 1.569,6.92 1.093,7.942 L 1.051,7.928 C 1.121,6.738 1.149,5.603 1.149,4.034 L 1.149,0 L 0,0 z" />
          </g>
          <g
             transform="translate(136.9229,758.6519)"
             id="g3644">
            <path
               id="path3646"
               style="fill:#ffffff;fill-opacity:1;fill-rule:nonzero;stroke:none"
               d="M 0,0 C 0,-2.017 1.092,-3.824 3.012,-3.824 C 4.944,-3.824 6.037,-2.045 6.037,0.098 C 6.037,1.975 5.057,3.936 3.025,3.936 C 1.008,3.936 0,2.073 0,0 M 7.326,0.154 C 7.326,-3.096 5.351,-4.819 2.941,-4.819 C 0.448,-4.819 -1.303,-2.886 -1.303,-0.028 C -1.303,2.97 0.56,4.931 3.082,4.931 C 5.659,4.931 7.326,2.956 7.326,0.154" />
          </g>
          <g
             transform="translate(147.8994,753.9873)"
             id="g3648">
            <path
               id="path3650"
               style="fill:#ffffff;fill-opacity:1;fill-rule:nonzero;stroke:none"
               d="M 0,0 L -3.082,9.441 L -1.765,9.441 L -0.294,4.791 C 0.112,3.516 0.462,2.367 0.714,1.261 L 0.742,1.261 C 1.009,2.354 1.401,3.544 1.821,4.776 L 3.418,9.441 L 4.721,9.441 L 1.345,0 L 0,0 z" />
          </g>
          <g
             transform="translate(157.4629,757.9092)"
             id="g3652">
            <path
               id="path3654"
               style="fill:#ffffff;fill-opacity:1;fill-rule:nonzero;stroke:none"
               d="M 0,0 L -0.924,2.718 C -1.135,3.334 -1.274,3.895 -1.415,4.44 L -1.443,4.44 C -1.583,3.88 -1.737,3.306 -1.919,2.732 L -2.843,0 L 0,0 z M -3.096,-0.952 L -4.076,-3.922 L -5.337,-3.922 L -2.129,5.519 L -0.658,5.519 L 2.563,-3.922 L 1.261,-3.922 L 0.252,-0.952 L -3.096,-0.952 z" />
          </g>
          <g
             transform="translate(162.123,762.3916)"
             id="g3656">
            <path
               id="path3658"
               style="fill:#ffffff;fill-opacity:1;fill-rule:nonzero;stroke:none"
               d="M 0,0 L -2.872,0 L -2.872,1.037 L 4.118,1.037 L 4.118,0 L 1.233,0 L 1.233,-8.404 L 0,-8.404 L 0,0 z" />
          </g>
          <path
             id="path3660"
             style="fill:#ffffff;fill-opacity:1;fill-rule:nonzero;stroke:none"
             d="M 168.507,753.987 L 167.288,753.987 L 167.288,763.428 L 168.507,763.428 L 168.507,753.987 z" />
          <g
             transform="translate(171.377,758.6519)"
             id="g3662">
            <path
               id="path3664"
               style="fill:#ffffff;fill-opacity:1;fill-rule:nonzero;stroke:none"
               d="M 0,0 C 0,-2.017 1.092,-3.824 3.012,-3.824 C 4.944,-3.824 6.037,-2.045 6.037,0.098 C 6.037,1.975 5.057,3.936 3.025,3.936 C 1.008,3.936 0,2.073 0,0 M 7.326,0.154 C 7.326,-3.096 5.351,-4.819 2.941,-4.819 C 0.448,-4.819 -1.303,-2.886 -1.303,-0.028 C -1.303,2.97 0.56,4.931 3.082,4.931 C 5.659,4.931 7.326,2.956 7.326,0.154" />
          </g>
          <g
             transform="translate(180.2803,753.9873)"
             id="g3666">
            <path
               id="path3668"
               style="fill:#ffffff;fill-opacity:1;fill-rule:nonzero;stroke:none"
               d="M 0,0 L 0,9.441 L 1.331,9.441 L 4.356,4.665 C 5.057,3.558 5.603,2.563 6.051,1.597 L 6.08,1.611 C 5.967,2.872 5.939,4.02 5.939,5.491 L 5.939,9.441 L 7.088,9.441 L 7.088,0 L 5.855,0 L 2.857,4.791 C 2.199,5.841 1.569,6.92 1.093,7.942 L 1.051,7.928 C 1.121,6.738 1.149,5.603 1.149,4.034 L 1.149,0 L 0,0 z" />
          </g>
          <g
             transform="translate(189.3242,755.4722)"
             id="g3670">
            <path
               id="path3672"
               style="fill:#ffffff;fill-opacity:1;fill-rule:nonzero;stroke:none"
               d="M 0,0 C 0.546,-0.336 1.345,-0.616 2.185,-0.616 C 3.432,-0.616 4.16,0.042 4.16,0.995 C 4.16,1.877 3.656,2.381 2.381,2.872 C 0.84,3.418 -0.112,4.216 -0.112,5.547 C -0.112,7.018 1.106,8.11 2.941,8.11 C 3.908,8.11 4.608,7.886 5.029,7.648 L 4.692,6.653 C 4.384,6.822 3.754,7.102 2.899,7.102 C 1.611,7.102 1.121,6.332 1.121,5.687 C 1.121,4.805 1.695,4.37 2.998,3.866 C 4.595,3.25 5.407,2.479 5.407,1.092 C 5.407,-0.364 4.328,-1.639 2.101,-1.639 C 1.19,-1.639 0.196,-1.359 -0.308,-1.022 L 0,0 z" />
          </g>
        </g>
      </g>
      <text
         xml:space="preserve"
         style="font-size:16px;font-style:normal;font-weight:normal;fill:#00743c;fill-opacity:1;stroke:none;stroke-width:1px;stroke-linecap:butt;stroke-linejoin:miter;stroke-opacity:1;font-family:Bitstream Vera Sans"
         x="83.519577"
         y="595.00275"
         id="text4354"><tspan
           sodipodi:role="line"
           id="tspan4356"
           x="83.519577"
           y="595.00275"
           style="font-size:13.75px;fill:#808080;fill-opacity:1">SKYLINE INNOVATIONS</tspan></text>
      <text
         xml:space="preserve"
         style="font-size:32px;font-style:normal;font-variant:normal;font-weight:normal;font-stretch:normal;text-align:start;line-height:125%;writing-mode:lr-tb;text-anchor:start;fill:#000000;fill-opacity:1;stroke:none;stroke-width:1px;stroke-linecap:butt;stroke-linejoin:miter;stroke-opacity:1;font-family:Century Gothic;-inkscape-font-specification:Century Gothic"
         x="82.218437"
         y="573.48267"
         id="text3035"
         sodipodi:linespacing="125%"><tspan
           sodipodi:role="line"
           id="tspan3037"
           x="82.218437"
           y="573.48267"
           style="font-size:28px;fill:#00743c;fill-opacity:1;-inkscape-font-specification:Century Gothic">Guaranteed Savings through Green Energy</tspan></text>
      <text
         xml:space="preserve"
         style="font-size:16px;font-style:normal;font-weight:normal;fill:#00743c;fill-opacity:1;stroke:none;stroke-width:1px;stroke-linecap:butt;stroke-linejoin:miter;stroke-opacity:1;font-family:Bitstream Vera Sans"
         x="263.39941"
         y="595.00275"
         id="text3809"><tspan
           sodipodi:role="line"
           id="tspan3811"
           x="263.39941"
           y="595.00275"
           style="font-size:13.75px;fill:#808080;fill-opacity:1">2451 18th ST NW SECOND FLOOR</tspan></text>
      <text
         xml:space="preserve"
         style="font-size:16px;font-style:normal;font-weight:normal;fill:#00743c;fill-opacity:1;stroke:none;stroke-width:1px;stroke-linecap:butt;stroke-linejoin:miter;stroke-opacity:1;font-family:Bitstream Vera Sans"
         x="504.7796"
         y="595.00275"
         id="text3817"><tspan
           sodipodi:role="line"
           id="tspan3819"
           x="504.7796"
           y="595.00275"
           style="font-size:13.75px;fill:#808080;fill-opacity:1">WASHINGTON DC, 20009</tspan></text>
    </g>
    <g
       id="g5065"
       transform="translate(-503.93276,514.53997)"
       inkscape:export-filename="C:\workspace-skyline\billing\presentation\images\art\g5458.png"
       inkscape:export-xdpi="92.75"
       inkscape:export-ydpi="92.75">
      <path
         style="fill:#5a8e46;fill-opacity:1;fill-rule:evenodd;stroke:none;stroke-width:1px;stroke-linecap:butt;stroke-linejoin:miter;stroke-opacity:1"
         d="M 935.69775,12.388851 L 928.42652,325.34874 L 930.695,963.96526 L 1660.3022,959.64677 L 1667.5697,10.70108 L 1036.8636,11.784336 M 944.463,54.022 C 944.463,49.425806 946.45658,45.500314 949.28501,42.848664 C 951.96569,40.32931 955.44003,38.681467 959.92103,38.618967 L 1633.3867,38.65051 C 1639.3044,38.855232 1641.86,40.826015 1644.346,43.059094 C 1647.0465,45.484923 1648.8797,49.681556 1648.9652,53.281937 L 1648.9652,932.41242 C 1648.9652,936.4846 1647.4295,940.40584 1644.9877,942.78456 C 1641.7103,945.97722 1638.9583,947.58279 1633.7497,947.70906 L 958.44699,947.6617 C 953.96944,947.05808 950.59048,944.87887 948.53486,942.70565 C 946.76634,940.83595 944.39986,936.78636 944.463,931.925 C 944.463,931.925 944.463,54.022 944.463,54.022 z"
         id="path4901"
         sodipodi:nodetypes="ccccccccccsccsccscc" />
      <path
         sodipodi:nodetypes="ccccsscssssscccccccccccccc"
         id="path4903"
         d="M 951.18113,30.505967 C 945.11863,30.787217 941.81459,33.880967 940.25209,35.474717 C 938.2325,37.534698 936.31582,40.294559 936.06582,46.419559 L 936.19206,940.21183 C 936.18665,944.85222 937.80942,948.26937 940.0507,950.70005 C 943.53209,954.47564 947.17747,955.99546 952.1651,956.0586 C 957.15273,956.12173 1641.6573,956.0586 1641.6573,956.0586 C 1646.7712,955.99546 1650.4962,954.4171 1653.716,950.62903 C 1656.9359,946.84096 1657.3778,943.62109 1657.441,940.27496 C 1657.5041,936.92883 1657.374,45.422417 1657.374,45.422417 C 1657.2401,39.574205 1654.1317,36.127292 1653.1134,35.06903 C 1651.975,33.885992 1648.3098,30.272117 1641.2785,30.316755 C 1641.2785,30.316755 951.18113,30.505967 951.18113,30.505967 z M 927.04811,3.5907763 C 927.04811,3.5907763 931.17521,-0.56347598 937.27401,-0.51928181 L 1659.1013,-0.51928181 C 1666.6143,-0.48771881 1670.5026,4.468338 1670.5026,4.468338 C 1670.5026,4.468338 1674.6064,8.746738 1674.5748,14.586676 L 1674.5748,958.11677 C 1674.5748,965.3489 1669.9319,969.1793 1669.9319,969.1793 C 1669.9319,969.1793 1666.2087,973.6436 1658.9319,973.5989 L 937.63731,973.5989 C 930.31588,973.5989 926.29644,969.0007 926.29644,969.0007 C 926.29644,969.0007 921.8768,965.1932 921.92144,957.47 C 922.11498,797.79387 922.06667,14.718258 922.06667,14.718258 C 922.37603,7.2936368 927.04811,3.5907763 927.04811,3.5907763 z"
         style="fill:#00743c;fill-opacity:1;fill-rule:evenodd;stroke:none;stroke-width:1px;stroke-linecap:butt;stroke-linejoin:miter;stroke-opacity:1" />
      <g
         id="g4907"
         transform="matrix(1.112546,0,0,-1.112546,913.20218,874.45814)">
        <g
           clip-path="url(#clipPath3604)"
           id="g4909">
          <g
             transform="translate(114.8818,769.332)"
             id="g4911">
            <path
               id="path4913"
               style="fill:#ffffff;fill-opacity:1;fill-rule:nonzero;stroke:none"
               d="M 0,0 C 0.936,-0.576 2.304,-1.056 3.744,-1.056 C 5.88,-1.056 7.128,0.072 7.128,1.704 C 7.128,3.216 6.265,4.08 4.081,4.92 C 1.44,5.856 -0.192,7.225 -0.192,9.504 C -0.192,12.025 1.896,13.897 5.041,13.897 C 6.697,13.897 7.896,13.513 8.617,13.105 L 8.041,11.401 C 7.513,11.689 6.433,12.169 4.968,12.169 C 2.76,12.169 1.92,10.849 1.92,9.745 C 1.92,8.232 2.904,7.488 5.136,6.625 C 7.873,5.568 9.265,4.248 9.265,1.872 C 9.265,-0.624 7.417,-2.809 3.6,-2.809 C 2.04,-2.809 0.336,-2.329 -0.528,-1.752 L 0,0 z" />
          </g>
          <g
             transform="translate(127.002,782.9648)"
             id="g4915">
            <path
               id="path4917"
               style="fill:#ffffff;fill-opacity:1;fill-rule:nonzero;stroke:none"
               d="M 0,0 L 2.088,0 L 2.088,-7.8 L 2.16,-7.8 C 2.592,-7.176 3.024,-6.601 3.432,-6.072 L 8.376,0 L 10.969,0 L 5.112,-6.864 L 11.425,-16.177 L 8.953,-16.177 L 3.624,-8.232 L 2.088,-10.009 L 2.088,-16.177 L 0,-16.177 L 0,0 z" />
          </g>
          <g
             transform="translate(143.4419,766.7876)"
             id="g4919">
            <path
               id="path4921"
               style="fill:#ffffff;fill-opacity:1;fill-rule:nonzero;stroke:none"
               d="M 0,0 L 0,6.865 L -5.112,16.177 L -2.736,16.177 L -0.456,11.713 C 0.168,10.489 0.648,9.505 1.152,8.377 L 1.2,8.377 C 1.656,9.433 2.208,10.489 2.833,11.713 L 5.161,16.177 L 7.537,16.177 L 2.112,6.889 L 2.112,0 L 0,0 z" />
          </g>
          <g
             transform="translate(152.6577,782.9648)"
             id="g4923">
            <path
               id="path4925"
               style="fill:#ffffff;fill-opacity:1;fill-rule:nonzero;stroke:none"
               d="M 0,0 L 2.088,0 L 2.088,-14.425 L 9,-14.425 L 9,-16.177 L 0,-16.177 L 0,0 z" />
          </g>
          <path
             id="path4927"
             style="fill:#ffffff;fill-opacity:1;fill-rule:nonzero;stroke:none"
             d="M 166.073,766.788 L 163.985,766.788 L 163.985,782.965 L 166.073,782.965 L 166.073,766.788 z" />
          <g
             transform="translate(169.7212,766.7876)"
             id="g4929">
            <path
               id="path4931"
               style="fill:#ffffff;fill-opacity:1;fill-rule:nonzero;stroke:none"
               d="M 0,0 L 0,16.177 L 2.28,16.177 L 7.464,7.993 C 8.665,6.097 9.601,4.393 10.369,2.736 L 10.417,2.76 C 10.225,4.92 10.177,6.889 10.177,9.409 L 10.177,16.177 L 12.145,16.177 L 12.145,0 L 10.033,0 L 4.896,8.208 C 3.768,10.009 2.688,11.857 1.872,13.609 L 1.8,13.585 C 1.92,11.545 1.968,9.601 1.968,6.913 L 1.968,0 L 0,0 z" />
          </g>
          <g
             transform="translate(193.8896,774.3721)"
             id="g4933">
            <path
               id="path4935"
               style="fill:#ffffff;fill-opacity:1;fill-rule:nonzero;stroke:none"
               d="M 0,0 L -6.289,0 L -6.289,-5.833 L 0.72,-5.833 L 0.72,-7.584 L -8.376,-7.584 L -8.376,8.593 L 0.36,8.593 L 0.36,6.841 L -6.289,6.841 L -6.289,1.729 L 0,1.729 L 0,0 z" />
          </g>
          <path
             id="path4937"
             style="fill:#ffffff;fill-opacity:1;fill-rule:nonzero;stroke:none"
             d="M 115.629,753.987 L 114.41,753.987 L 114.41,763.428 L 115.629,763.428 L 115.629,753.987 z" />
          <g
             transform="translate(117.7563,753.9873)"
             id="g4939">
            <path
               id="path4941"
               style="fill:#ffffff;fill-opacity:1;fill-rule:nonzero;stroke:none"
               d="M 0,0 L 0,9.441 L 1.331,9.441 L 4.356,4.665 C 5.057,3.558 5.603,2.563 6.051,1.597 L 6.08,1.611 C 5.967,2.872 5.939,4.02 5.939,5.491 L 5.939,9.441 L 7.088,9.441 L 7.088,0 L 5.855,0 L 2.858,4.791 C 2.199,5.841 1.569,6.92 1.093,7.942 L 1.051,7.928 C 1.121,6.738 1.149,5.603 1.149,4.034 L 1.149,0 L 0,0 z" />
          </g>
          <g
             transform="translate(126.9683,753.9873)"
             id="g4943">
            <path
               id="path4945"
               style="fill:#ffffff;fill-opacity:1;fill-rule:nonzero;stroke:none"
               d="M 0,0 L 0,9.441 L 1.331,9.441 L 4.356,4.665 C 5.057,3.558 5.603,2.563 6.051,1.597 L 6.08,1.611 C 5.967,2.872 5.939,4.02 5.939,5.491 L 5.939,9.441 L 7.088,9.441 L 7.088,0 L 5.855,0 L 2.858,4.791 C 2.199,5.841 1.569,6.92 1.093,7.942 L 1.051,7.928 C 1.121,6.738 1.149,5.603 1.149,4.034 L 1.149,0 L 0,0 z" />
          </g>
          <g
             transform="translate(136.9229,758.6519)"
             id="g4947">
            <path
               id="path4949"
               style="fill:#ffffff;fill-opacity:1;fill-rule:nonzero;stroke:none"
               d="M 0,0 C 0,-2.017 1.092,-3.824 3.012,-3.824 C 4.944,-3.824 6.037,-2.045 6.037,0.098 C 6.037,1.975 5.057,3.936 3.025,3.936 C 1.008,3.936 0,2.073 0,0 M 7.326,0.154 C 7.326,-3.096 5.351,-4.819 2.941,-4.819 C 0.448,-4.819 -1.303,-2.886 -1.303,-0.028 C -1.303,2.97 0.56,4.931 3.082,4.931 C 5.659,4.931 7.326,2.956 7.326,0.154" />
          </g>
          <g
             transform="translate(147.8994,753.9873)"
             id="g4951">
            <path
               id="path4953"
               style="fill:#ffffff;fill-opacity:1;fill-rule:nonzero;stroke:none"
               d="M 0,0 L -3.082,9.441 L -1.765,9.441 L -0.294,4.791 C 0.112,3.516 0.462,2.367 0.714,1.261 L 0.742,1.261 C 1.009,2.354 1.401,3.544 1.821,4.776 L 3.418,9.441 L 4.721,9.441 L 1.345,0 L 0,0 z" />
          </g>
          <g
             transform="translate(157.4629,757.9092)"
             id="g4955">
            <path
               id="path4957"
               style="fill:#ffffff;fill-opacity:1;fill-rule:nonzero;stroke:none"
               d="M 0,0 L -0.924,2.718 C -1.135,3.334 -1.274,3.895 -1.415,4.44 L -1.443,4.44 C -1.583,3.88 -1.737,3.306 -1.919,2.732 L -2.843,0 L 0,0 z M -3.096,-0.952 L -4.076,-3.922 L -5.337,-3.922 L -2.129,5.519 L -0.658,5.519 L 2.563,-3.922 L 1.261,-3.922 L 0.252,-0.952 L -3.096,-0.952 z" />
          </g>
          <g
             transform="translate(162.123,762.3916)"
             id="g4959">
            <path
               id="path4961"
               style="fill:#ffffff;fill-opacity:1;fill-rule:nonzero;stroke:none"
               d="M 0,0 L -2.872,0 L -2.872,1.037 L 4.118,1.037 L 4.118,0 L 1.233,0 L 1.233,-8.404 L 0,-8.404 L 0,0 z" />
          </g>
          <path
             id="path4963"
             style="fill:#ffffff;fill-opacity:1;fill-rule:nonzero;stroke:none"
             d="M 168.507,753.987 L 167.288,753.987 L 167.288,763.428 L 168.507,763.428 L 168.507,753.987 z" />
          <g
             transform="translate(171.377,758.6519)"
             id="g4965">
            <path
               id="path4967"
               style="fill:#ffffff;fill-opacity:1;fill-rule:nonzero;stroke:none"
               d="M 0,0 C 0,-2.017 1.092,-3.824 3.012,-3.824 C 4.944,-3.824 6.037,-2.045 6.037,0.098 C 6.037,1.975 5.057,3.936 3.025,3.936 C 1.008,3.936 0,2.073 0,0 M 7.326,0.154 C 7.326,-3.096 5.351,-4.819 2.941,-4.819 C 0.448,-4.819 -1.303,-2.886 -1.303,-0.028 C -1.303,2.97 0.56,4.931 3.082,4.931 C 5.659,4.931 7.326,2.956 7.326,0.154" />
          </g>
          <g
             transform="translate(180.2803,753.9873)"
             id="g4969">
            <path
               id="path4971"
               style="fill:#ffffff;fill-opacity:1;fill-rule:nonzero;stroke:none"
               d="M 0,0 L 0,9.441 L 1.331,9.441 L 4.356,4.665 C 5.057,3.558 5.603,2.563 6.051,1.597 L 6.08,1.611 C 5.967,2.872 5.939,4.02 5.939,5.491 L 5.939,9.441 L 7.088,9.441 L 7.088,0 L 5.855,0 L 2.857,4.791 C 2.199,5.841 1.569,6.92 1.093,7.942 L 1.051,7.928 C 1.121,6.738 1.149,5.603 1.149,4.034 L 1.149,0 L 0,0 z" />
          </g>
          <g
             transform="translate(189.3242,755.4722)"
             id="g4973">
            <path
               id="path4975"
               style="fill:#ffffff;fill-opacity:1;fill-rule:nonzero;stroke:none"
               d="M 0,0 C 0.546,-0.336 1.345,-0.616 2.185,-0.616 C 3.432,-0.616 4.16,0.042 4.16,0.995 C 4.16,1.877 3.656,2.381 2.381,2.872 C 0.84,3.418 -0.112,4.216 -0.112,5.547 C -0.112,7.018 1.106,8.11 2.941,8.11 C 3.908,8.11 4.608,7.886 5.029,7.648 L 4.692,6.653 C 4.384,6.822 3.754,7.102 2.899,7.102 C 1.611,7.102 1.121,6.332 1.121,5.687 C 1.121,4.805 1.695,4.37 2.998,3.866 C 4.595,3.25 5.407,2.479 5.407,1.092 C 5.407,-0.364 4.328,-1.639 2.101,-1.639 C 1.19,-1.639 0.196,-1.359 -0.308,-1.022 L 0,0 z" />
          </g>
        </g>
      </g>
    </g>
    <path
       transform="matrix(1.6113436,0,0,1.6113436,-728.94932,-859.47082)"
       d="M 728.43752,85.732719 A 9.3526783,9.3526783 0 1 1 709.73216,85.732719 A 9.3526783,9.3526783 0 1 1 728.43752,85.732719 z"
       sodipodi:ry="9.3526783"
       sodipodi:rx="9.3526783"
       sodipodi:cy="85.732719"
       sodipodi:cx="719.08484"
       id="path4905"
       style="fill:#2f0046;fill-opacity:1;stroke:#000000;stroke-width:0.5;stroke-linecap:butt;stroke-miterlimit:4;stroke-dasharray:none;stroke-dashoffset:0;stroke-opacity:1"
       sodipodi:type="arc" />
    <rect
       y="-697.72528"
       x="425.0365"
       height="7.8703728"
       width="7.8703728"
       id="rect3606"
       style="fill:#2f0046;fill-opacity:1;stroke:#000000;stroke-width:0.45831007;stroke-linecap:butt;stroke-miterlimit:4;stroke-dasharray:none;stroke-dashoffset:0;stroke-opacity:1" />
    <g
       id="g5200"
       transform="translate(547.79134,-490.7321)"
       inkscape:export-filename="C:\workspace-skyline\billing\presentation\images\art\g5458.png"
       inkscape:export-xdpi="92.75"
       inkscape:export-ydpi="92.75">
      <path
         style="fill:#5a8e46;fill-opacity:1;fill-rule:evenodd;stroke:none;stroke-width:1px;stroke-linecap:butt;stroke-linejoin:miter;stroke-opacity:1"
         d="M -804.7169,32.769851 L -208.1429,32.801352 C -202.22522,33.006101 -199.66962,34.976851 -197.18365,37.209976 C -194.4831,39.635726 -192.64994,43.832351 -192.56447,47.432851 L -192.56447,926.5631 C -192.56447,930.63529 -194.10007,934.55653 -196.54193,936.93524 C -199.81933,940.1279 -202.57129,941.73348 -207.77989,941.85974 L -883.08264,941.81239 C -887.56019,941.20877 -890.93914,939.02955 -892.99477,936.85634 C -894.76329,934.98664 -897.13008,930.93747 -897.06694,926.0761 L -898.20335,321.64185 C -898.37334,307.54708 -907.82522,299.01615 -925.73002,298.84578 L -925.47748,980.82954 L -162.81232,980.57704 L -170.38845,-8.3623989 L -804.76425,-15.180899 L -804.7169,32.769851 z"
         id="path3611"
         sodipodi:nodetypes="ccsccsccscccccccc" />
      <g
         transform="matrix(0.8575959,0,0,-0.8575959,-910.72215,669.15305)"
         id="g3613">
        <g
           id="g3615">
          <g
             id="g3617" />
          <g
             id="g3619">
            <g
               style="opacity:0.77000397"
               clip-path="url(#clipPath3514)"
               id="g3621">
              <g
                 transform="translate(56.1343,772.1729)"
                 id="g3623">
                <path
                   d="M 0,0 L 0,-109.334 L -26.486,-102.002 L -35.546,10.667 L 0,0 z"
                   style="fill:#098137;fill-opacity:1;fill-rule:nonzero;stroke:none"
                   id="path3625" />
              </g>
            </g>
          </g>
        </g>
        <g
           id="g3627">
          <g
             id="g3629" />
          <g
             id="g3631">
            <g
               style="opacity:0.869995"
               clip-path="url(#clipPath3530)"
               id="g3633">
              <g
                 transform="translate(7.6938,766.5059)"
                 id="g3635">
                <path
                   d="M 0,0 L 16.03,-125.003 L 24.395,-126.668 L 24.395,-9.667 L 0,0 z"
                   style="fill:#11ab4a;fill-opacity:1;fill-rule:nonzero;stroke:none"
                   id="path3637" />
              </g>
            </g>
          </g>
        </g>
        <g
           id="g3639">
          <g
             id="g3641" />
          <g
             id="g3643">
            <g
               style="opacity:0.869995"
               clip-path="url(#clipPath3546)"
               id="g3645">
              <g
                 transform="translate(42.8911,635.1685)"
                 id="g3647">
                <path
                   d="M 0,0 L 0,120.67 L 44.605,134.339 L 23.348,8.001 L 0,0 z"
                   style="fill:#11ab4a;fill-opacity:1;fill-rule:nonzero;stroke:none"
                   id="path3649" />
              </g>
            </g>
          </g>
        </g>
        <g
           id="g3651">
          <g
             id="g3653" />
          <g
             id="g3655">
            <g
               style="opacity:0.77000397"
               clip-path="url(#clipPath3562)"
               id="g3657">
              <g
                 transform="translate(32.0889,772.1729)"
                 id="g3659">
                <path
                   d="M 0,0 L 0,-158.336 L 22.998,-150.337 L 37.637,11 L 0,0 z"
                   style="fill:#6ec72d;fill-opacity:1;fill-rule:nonzero;stroke:none"
                   id="path3661" />
              </g>
            </g>
          </g>
        </g>
      </g>
      <path
         sodipodi:nodetypes="ccccccccccccccsscssssscc"
         id="path3663"
         d="M -804.6691,-15.118399 L -177.6691,-15.118399 L -162.6691,-15.118399 L -162.6691,1.8816011 L -162.6691,963.88154 L -162.6691,980.88164 L -177.4191,980.88164 L -910.9191,980.88164 L -925.6691,980.88164 C -925.6691,980.88164 -925.6691,963.61874 -925.6691,963.61874 C -925.6691,809.23324 -925.6691,468.84773 -925.6691,314.46223 C -925.6691,314.46223 -925.6691,307.19938 -925.6691,307.19938 C -914.73273,307.18407 -905.63474,312.90959 -905.5901,322.73101 L -905.33757,934.36252 C -905.34298,939.0029 -903.7202,942.42005 -901.47893,944.85074 C -897.99754,948.62633 -894.35215,950.14614 -889.36453,950.20929 C -884.37689,950.27242 -199.87229,950.20929 -199.87229,950.20929 C -194.75839,950.14615 -191.03344,948.56778 -187.81358,944.77972 C -184.59372,940.99164 -184.15179,937.77178 -184.08864,934.42564 C -184.02552,931.07952 -184.1556,39.573227 -184.1556,39.573227 C -184.28953,33.725101 -187.39794,30.278102 -188.41627,29.219851 C -189.55465,28.036852 -193.21984,24.422976 -200.25109,24.467601 C -200.25109,24.467601 -804.6691,24.656976 -804.6691,24.656976 L -804.6691,-15.118399 z"
         style="fill:#00743c;fill-opacity:1;fill-rule:evenodd;stroke:none;stroke-width:1px;stroke-linecap:butt;stroke-linejoin:miter;stroke-opacity:1" />
      <g
         id="g3665"
         transform="matrix(1.112546,0,0,-1.112546,-928.32744,867.80522)">
        <g
           clip-path="url(#clipPath3604)"
           id="g3667">
          <g
             transform="translate(114.8818,769.332)"
             id="g3669">
            <path
               id="path3671"
               style="fill:#ffffff;fill-opacity:1;fill-rule:nonzero;stroke:none"
               d="M 0,0 C 0.936,-0.576 2.304,-1.056 3.744,-1.056 C 5.88,-1.056 7.128,0.072 7.128,1.704 C 7.128,3.216 6.265,4.08 4.081,4.92 C 1.44,5.856 -0.192,7.225 -0.192,9.504 C -0.192,12.025 1.896,13.897 5.041,13.897 C 6.697,13.897 7.896,13.513 8.617,13.105 L 8.041,11.401 C 7.513,11.689 6.433,12.169 4.968,12.169 C 2.76,12.169 1.92,10.849 1.92,9.745 C 1.92,8.232 2.904,7.488 5.136,6.625 C 7.873,5.568 9.265,4.248 9.265,1.872 C 9.265,-0.624 7.417,-2.809 3.6,-2.809 C 2.04,-2.809 0.336,-2.329 -0.528,-1.752 L 0,0 z" />
          </g>
          <g
             transform="translate(127.002,782.9648)"
             id="g3673">
            <path
               id="path3675"
               style="fill:#ffffff;fill-opacity:1;fill-rule:nonzero;stroke:none"
               d="M 0,0 L 2.088,0 L 2.088,-7.8 L 2.16,-7.8 C 2.592,-7.176 3.024,-6.601 3.432,-6.072 L 8.376,0 L 10.969,0 L 5.112,-6.864 L 11.425,-16.177 L 8.953,-16.177 L 3.624,-8.232 L 2.088,-10.009 L 2.088,-16.177 L 0,-16.177 L 0,0 z" />
          </g>
          <g
             transform="translate(143.4419,766.7876)"
             id="g3677">
            <path
               id="path3679"
               style="fill:#ffffff;fill-opacity:1;fill-rule:nonzero;stroke:none"
               d="M 0,0 L 0,6.865 L -5.112,16.177 L -2.736,16.177 L -0.456,11.713 C 0.168,10.489 0.648,9.505 1.152,8.377 L 1.2,8.377 C 1.656,9.433 2.208,10.489 2.833,11.713 L 5.161,16.177 L 7.537,16.177 L 2.112,6.889 L 2.112,0 L 0,0 z" />
          </g>
          <g
             transform="translate(152.6577,782.9648)"
             id="g3681">
            <path
               id="path3683"
               style="fill:#ffffff;fill-opacity:1;fill-rule:nonzero;stroke:none"
               d="M 0,0 L 2.088,0 L 2.088,-14.425 L 9,-14.425 L 9,-16.177 L 0,-16.177 L 0,0 z" />
          </g>
          <path
             id="path3685"
             style="fill:#ffffff;fill-opacity:1;fill-rule:nonzero;stroke:none"
             d="M 166.073,766.788 L 163.985,766.788 L 163.985,782.965 L 166.073,782.965 L 166.073,766.788 z" />
          <g
             transform="translate(169.7212,766.7876)"
             id="g3687">
            <path
               id="path3689"
               style="fill:#ffffff;fill-opacity:1;fill-rule:nonzero;stroke:none"
               d="M 0,0 L 0,16.177 L 2.28,16.177 L 7.464,7.993 C 8.665,6.097 9.601,4.393 10.369,2.736 L 10.417,2.76 C 10.225,4.92 10.177,6.889 10.177,9.409 L 10.177,16.177 L 12.145,16.177 L 12.145,0 L 10.033,0 L 4.896,8.208 C 3.768,10.009 2.688,11.857 1.872,13.609 L 1.8,13.585 C 1.92,11.545 1.968,9.601 1.968,6.913 L 1.968,0 L 0,0 z" />
          </g>
          <g
             transform="translate(193.8896,774.3721)"
             id="g3691">
            <path
               id="path3693"
               style="fill:#ffffff;fill-opacity:1;fill-rule:nonzero;stroke:none"
               d="M 0,0 L -6.289,0 L -6.289,-5.833 L 0.72,-5.833 L 0.72,-7.584 L -8.376,-7.584 L -8.376,8.593 L 0.36,8.593 L 0.36,6.841 L -6.289,6.841 L -6.289,1.729 L 0,1.729 L 0,0 z" />
          </g>
          <path
             id="path3695"
             style="fill:#ffffff;fill-opacity:1;fill-rule:nonzero;stroke:none"
             d="M 115.629,753.987 L 114.41,753.987 L 114.41,763.428 L 115.629,763.428 L 115.629,753.987 z" />
          <g
             transform="translate(117.7563,753.9873)"
             id="g3697">
            <path
               id="path3699"
               style="fill:#ffffff;fill-opacity:1;fill-rule:nonzero;stroke:none"
               d="M 0,0 L 0,9.441 L 1.331,9.441 L 4.356,4.665 C 5.057,3.558 5.603,2.563 6.051,1.597 L 6.08,1.611 C 5.967,2.872 5.939,4.02 5.939,5.491 L 5.939,9.441 L 7.088,9.441 L 7.088,0 L 5.855,0 L 2.858,4.791 C 2.199,5.841 1.569,6.92 1.093,7.942 L 1.051,7.928 C 1.121,6.738 1.149,5.603 1.149,4.034 L 1.149,0 L 0,0 z" />
          </g>
          <g
             transform="translate(126.9683,753.9873)"
             id="g3701">
            <path
               id="path3703"
               style="fill:#ffffff;fill-opacity:1;fill-rule:nonzero;stroke:none"
               d="M 0,0 L 0,9.441 L 1.331,9.441 L 4.356,4.665 C 5.057,3.558 5.603,2.563 6.051,1.597 L 6.08,1.611 C 5.967,2.872 5.939,4.02 5.939,5.491 L 5.939,9.441 L 7.088,9.441 L 7.088,0 L 5.855,0 L 2.858,4.791 C 2.199,5.841 1.569,6.92 1.093,7.942 L 1.051,7.928 C 1.121,6.738 1.149,5.603 1.149,4.034 L 1.149,0 L 0,0 z" />
          </g>
          <g
             transform="translate(136.9229,758.6519)"
             id="g3705">
            <path
               id="path3707"
               style="fill:#ffffff;fill-opacity:1;fill-rule:nonzero;stroke:none"
               d="M 0,0 C 0,-2.017 1.092,-3.824 3.012,-3.824 C 4.944,-3.824 6.037,-2.045 6.037,0.098 C 6.037,1.975 5.057,3.936 3.025,3.936 C 1.008,3.936 0,2.073 0,0 M 7.326,0.154 C 7.326,-3.096 5.351,-4.819 2.941,-4.819 C 0.448,-4.819 -1.303,-2.886 -1.303,-0.028 C -1.303,2.97 0.56,4.931 3.082,4.931 C 5.659,4.931 7.326,2.956 7.326,0.154" />
          </g>
          <g
             transform="translate(147.8994,753.9873)"
             id="g3709">
            <path
               id="path3711"
               style="fill:#ffffff;fill-opacity:1;fill-rule:nonzero;stroke:none"
               d="M 0,0 L -3.082,9.441 L -1.765,9.441 L -0.294,4.791 C 0.112,3.516 0.462,2.367 0.714,1.261 L 0.742,1.261 C 1.009,2.354 1.401,3.544 1.821,4.776 L 3.418,9.441 L 4.721,9.441 L 1.345,0 L 0,0 z" />
          </g>
          <g
             transform="translate(157.4629,757.9092)"
             id="g3713">
            <path
               id="path3715"
               style="fill:#ffffff;fill-opacity:1;fill-rule:nonzero;stroke:none"
               d="M 0,0 L -0.924,2.718 C -1.135,3.334 -1.274,3.895 -1.415,4.44 L -1.443,4.44 C -1.583,3.88 -1.737,3.306 -1.919,2.732 L -2.843,0 L 0,0 z M -3.096,-0.952 L -4.076,-3.922 L -5.337,-3.922 L -2.129,5.519 L -0.658,5.519 L 2.563,-3.922 L 1.261,-3.922 L 0.252,-0.952 L -3.096,-0.952 z" />
          </g>
          <g
             transform="translate(162.123,762.3916)"
             id="g3717">
            <path
               id="path3719"
               style="fill:#ffffff;fill-opacity:1;fill-rule:nonzero;stroke:none"
               d="M 0,0 L -2.872,0 L -2.872,1.037 L 4.118,1.037 L 4.118,0 L 1.233,0 L 1.233,-8.404 L 0,-8.404 L 0,0 z" />
          </g>
          <path
             id="path3721"
             style="fill:#ffffff;fill-opacity:1;fill-rule:nonzero;stroke:none"
             d="M 168.507,753.987 L 167.288,753.987 L 167.288,763.428 L 168.507,763.428 L 168.507,753.987 z" />
          <g
             transform="translate(171.377,758.6519)"
             id="g3723">
            <path
               id="path3725"
               style="fill:#ffffff;fill-opacity:1;fill-rule:nonzero;stroke:none"
               d="M 0,0 C 0,-2.017 1.092,-3.824 3.012,-3.824 C 4.944,-3.824 6.037,-2.045 6.037,0.098 C 6.037,1.975 5.057,3.936 3.025,3.936 C 1.008,3.936 0,2.073 0,0 M 7.326,0.154 C 7.326,-3.096 5.351,-4.819 2.941,-4.819 C 0.448,-4.819 -1.303,-2.886 -1.303,-0.028 C -1.303,2.97 0.56,4.931 3.082,4.931 C 5.659,4.931 7.326,2.956 7.326,0.154" />
          </g>
          <g
             transform="translate(180.2803,753.9873)"
             id="g3727">
            <path
               id="path3729"
               style="fill:#ffffff;fill-opacity:1;fill-rule:nonzero;stroke:none"
               d="M 0,0 L 0,9.441 L 1.331,9.441 L 4.356,4.665 C 5.057,3.558 5.603,2.563 6.051,1.597 L 6.08,1.611 C 5.967,2.872 5.939,4.02 5.939,5.491 L 5.939,9.441 L 7.088,9.441 L 7.088,0 L 5.855,0 L 2.857,4.791 C 2.199,5.841 1.569,6.92 1.093,7.942 L 1.051,7.928 C 1.121,6.738 1.149,5.603 1.149,4.034 L 1.149,0 L 0,0 z" />
          </g>
          <g
             transform="translate(189.3242,755.4722)"
             id="g3731">
            <path
               id="path3733"
               style="fill:#ffffff;fill-opacity:1;fill-rule:nonzero;stroke:none"
               d="M 0,0 C 0.546,-0.336 1.345,-0.616 2.185,-0.616 C 3.432,-0.616 4.16,0.042 4.16,0.995 C 4.16,1.877 3.656,2.381 2.381,2.872 C 0.84,3.418 -0.112,4.216 -0.112,5.547 C -0.112,7.018 1.106,8.11 2.941,8.11 C 3.908,8.11 4.608,7.886 5.029,7.648 L 4.692,6.653 C 4.384,6.822 3.754,7.102 2.899,7.102 C 1.611,7.102 1.121,6.332 1.121,5.687 C 1.121,4.805 1.695,4.37 2.998,3.866 C 4.595,3.25 5.407,2.479 5.407,1.092 C 5.407,-0.364 4.328,-1.639 2.101,-1.639 C 1.19,-1.639 0.196,-1.359 -0.308,-1.022 L 0,0 z" />
          </g>
        </g>
      </g>
      <g
         transform="translate(-663.26613,-555.61941)"
         id="g5190">
        <text
           id="text5174"
           y="638.34839"
           x="-143.27074"
           style="font-size:16px;font-style:normal;font-weight:normal;fill:#00743c;fill-opacity:1;stroke:none;stroke-width:1px;stroke-linecap:butt;stroke-linejoin:miter;stroke-opacity:1;font-family:Bitstream Vera Sans"
           xml:space="preserve"><tspan
             style="font-size:13.75px;fill:#808080;fill-opacity:1"
             y="638.34839"
             x="-143.27074"
             id="tspan5176"
             sodipodi:role="line">SKYLINE INNOVATIONS</tspan></text>
        <text
           sodipodi:linespacing="125%"
           id="text5178"
           y="616.82831"
           x="-144.57188"
           style="font-size:32px;font-style:normal;font-variant:normal;font-weight:normal;font-stretch:normal;text-align:start;line-height:125%;writing-mode:lr-tb;text-anchor:start;fill:#000000;fill-opacity:1;stroke:none;stroke-width:1px;stroke-linecap:butt;stroke-linejoin:miter;stroke-opacity:1;font-family:Century Gothic;-inkscape-font-specification:Century Gothic"
           xml:space="preserve"><tspan
             style="font-size:28px;fill:#00743c;fill-opacity:1;-inkscape-font-specification:Century Gothic"
             y="616.82831"
             x="-144.57188"
             id="tspan5180"
             sodipodi:role="line">Guaranteed Savings through Green Energy</tspan></text>
        <text
           id="text5182"
           y="638.34839"
           x="36.609097"
           style="font-size:16px;font-style:normal;font-weight:normal;fill:#00743c;fill-opacity:1;stroke:none;stroke-width:1px;stroke-linecap:butt;stroke-linejoin:miter;stroke-opacity:1;font-family:Bitstream Vera Sans"
           xml:space="preserve"><tspan
             style="font-size:13.75px;fill:#808080;fill-opacity:1"
             y="638.34839"
             x="36.609097"
             id="tspan5184"
             sodipodi:role="line">2451 18th ST NW SECOND FLOOR</tspan></text>
        <text
           id="text5186"
           y="638.34839"
           x="277.98929"
           style="font-size:16px;font-style:normal;font-weight:normal;fill:#00743c;fill-opacity:1;stroke:none;stroke-width:1px;stroke-linecap:butt;stroke-linejoin:miter;stroke-opacity:1;font-family:Bitstream Vera Sans"
           xml:space="preserve"><tspan
             style="font-size:13.75px;fill:#808080;fill-opacity:1"
             y="638.34839"
             x="277.98929"
             id="tspan5188"
             sodipodi:role="line">WASHINGTON DC, 20009</tspan></text>
      </g>
    </g>
    <g
       id="g5458"
       transform="translate(-381.93276,516.53997)"
       inkscape:export-xdpi="92.75"
       inkscape:export-ydpi="92.75">
      <path
         style="fill:#5a8e46;fill-opacity:1;fill-rule:evenodd;stroke:none;stroke-width:1px;stroke-linecap:butt;stroke-linejoin:miter;stroke-opacity:1"
         d="M 13.792856,14.545752 L 6.5216258,333.16249 L 8.790106,978.70103 L 751.12522,974.38254 L 758.39272,12.857981 M 22.558106,56.178901 C 22.558106,51.582707 24.551686,47.657215 27.380116,45.005565 C 30.060796,42.486211 33.535136,40.838368 38.016136,40.775868 L 724.20972,40.807411 C 730.12742,41.012133 732.68302,42.982916 735.16902,45.215995 C 737.86952,47.641824 739.70272,51.838457 739.78822,55.438838 L 739.78822,947.14819 C 739.78822,951.22037 738.25252,955.14161 735.81072,957.52033 C 732.53332,960.71299 729.78132,962.31856 724.57272,962.44483 L 36.542096,962.39747 C 32.064546,961.79385 28.685586,959.61464 26.629966,957.44142 C 24.861446,955.57172 22.494966,951.52213 22.558106,946.66077 C 22.558106,946.66077 22.558106,56.178901 22.558106,56.178901 z"
         id="path5347"
         sodipodi:nodetypes="cccccccccsccsccscc" />
      <path
         sodipodi:nodetypes="ccccsscssssscccccc"
         id="path5349"
         d="M 29.276236,31.248654 C 23.213736,31.529904 19.909696,34.623654 18.347196,36.217404 C 16.327606,38.277385 14.410926,41.037246 14.160926,47.162246 L 14.287166,956.59664 C 14.281756,961.23703 15.904526,964.65418 18.145806,967.08486 C 21.627196,970.86045 25.272576,972.38027 30.260206,972.44341 C 35.247836,972.50654 732.48032,972.44341 732.48032,972.44341 C 737.59422,972.38027 741.31922,970.80191 744.53902,967.01384 C 747.75892,963.22577 748.20082,960.0059 748.26402,956.65977 C 748.32712,953.31364 748.19702,46.165104 748.19702,46.165104 C 748.06312,40.316892 744.95472,36.869979 743.93642,35.811717 C 742.79802,34.628679 739.13282,31.014804 732.10152,31.059442 C 732.10152,31.059442 29.276236,31.248654 29.276236,31.248654 z M 0.1621458,0.22340609 L 765.39802,0.22340609 L 765.39782,989.98361 L 0.016145801,989.98371 C 0.016145801,989.98371 0.1621458,0.22340609 0.1621458,0.22340609 z"
         style="fill:#00743c;fill-opacity:1;fill-rule:evenodd;stroke:none;stroke-width:1px;stroke-linecap:butt;stroke-linejoin:miter;stroke-opacity:1" />
      <g
         id="g5351"
         transform="matrix(1.112546,0,0,-1.112546,-3.04586,875.20084)">
        <g
           clip-path="url(#clipPath3604)"
           id="g5353">
          <g
             transform="translate(114.8818,769.332)"
             id="g5355">
            <path
               id="path5357"
               style="fill:#ffffff;fill-opacity:1;fill-rule:nonzero;stroke:none"
               d="M 0,0 C 0.936,-0.576 2.304,-1.056 3.744,-1.056 C 5.88,-1.056 7.128,0.072 7.128,1.704 C 7.128,3.216 6.265,4.08 4.081,4.92 C 1.44,5.856 -0.192,7.225 -0.192,9.504 C -0.192,12.025 1.896,13.897 5.041,13.897 C 6.697,13.897 7.896,13.513 8.617,13.105 L 8.041,11.401 C 7.513,11.689 6.433,12.169 4.968,12.169 C 2.76,12.169 1.92,10.849 1.92,9.745 C 1.92,8.232 2.904,7.488 5.136,6.625 C 7.873,5.568 9.265,4.248 9.265,1.872 C 9.265,-0.624 7.417,-2.809 3.6,-2.809 C 2.04,-2.809 0.336,-2.329 -0.528,-1.752 L 0,0 z" />
          </g>
          <g
             transform="translate(127.002,782.9648)"
             id="g5359">
            <path
               id="path5361"
               style="fill:#ffffff;fill-opacity:1;fill-rule:nonzero;stroke:none"
               d="M 0,0 L 2.088,0 L 2.088,-7.8 L 2.16,-7.8 C 2.592,-7.176 3.024,-6.601 3.432,-6.072 L 8.376,0 L 10.969,0 L 5.112,-6.864 L 11.425,-16.177 L 8.953,-16.177 L 3.624,-8.232 L 2.088,-10.009 L 2.088,-16.177 L 0,-16.177 L 0,0 z" />
          </g>
          <g
             transform="translate(143.4419,766.7876)"
             id="g5363">
            <path
               id="path5365"
               style="fill:#ffffff;fill-opacity:1;fill-rule:nonzero;stroke:none"
               d="M 0,0 L 0,6.865 L -5.112,16.177 L -2.736,16.177 L -0.456,11.713 C 0.168,10.489 0.648,9.505 1.152,8.377 L 1.2,8.377 C 1.656,9.433 2.208,10.489 2.833,11.713 L 5.161,16.177 L 7.537,16.177 L 2.112,6.889 L 2.112,0 L 0,0 z" />
          </g>
          <g
             transform="translate(152.6577,782.9648)"
             id="g5367">
            <path
               id="path5369"
               style="fill:#ffffff;fill-opacity:1;fill-rule:nonzero;stroke:none"
               d="M 0,0 L 2.088,0 L 2.088,-14.425 L 9,-14.425 L 9,-16.177 L 0,-16.177 L 0,0 z" />
          </g>
          <path
             id="path5371"
             style="fill:#ffffff;fill-opacity:1;fill-rule:nonzero;stroke:none"
             d="M 166.073,766.788 L 163.985,766.788 L 163.985,782.965 L 166.073,782.965 L 166.073,766.788 z" />
          <g
             transform="translate(169.7212,766.7876)"
             id="g5373">
            <path
               id="path5375"
               style="fill:#ffffff;fill-opacity:1;fill-rule:nonzero;stroke:none"
               d="M 0,0 L 0,16.177 L 2.28,16.177 L 7.464,7.993 C 8.665,6.097 9.601,4.393 10.369,2.736 L 10.417,2.76 C 10.225,4.92 10.177,6.889 10.177,9.409 L 10.177,16.177 L 12.145,16.177 L 12.145,0 L 10.033,0 L 4.896,8.208 C 3.768,10.009 2.688,11.857 1.872,13.609 L 1.8,13.585 C 1.92,11.545 1.968,9.601 1.968,6.913 L 1.968,0 L 0,0 z" />
          </g>
          <g
             transform="translate(193.8896,774.3721)"
             id="g5377">
            <path
               id="path5379"
               style="fill:#ffffff;fill-opacity:1;fill-rule:nonzero;stroke:none"
               d="M 0,0 L -6.289,0 L -6.289,-5.833 L 0.72,-5.833 L 0.72,-7.584 L -8.376,-7.584 L -8.376,8.593 L 0.36,8.593 L 0.36,6.841 L -6.289,6.841 L -6.289,1.729 L 0,1.729 L 0,0 z" />
          </g>
          <path
             id="path5381"
             style="fill:#ffffff;fill-opacity:1;fill-rule:nonzero;stroke:none"
             d="M 115.629,753.987 L 114.41,753.987 L 114.41,763.428 L 115.629,763.428 L 115.629,753.987 z" />
          <g
             transform="translate(117.7563,753.9873)"
             id="g5383">
            <path
               id="path5385"
               style="fill:#ffffff;fill-opacity:1;fill-rule:nonzero;stroke:none"
               d="M 0,0 L 0,9.441 L 1.331,9.441 L 4.356,4.665 C 5.057,3.558 5.603,2.563 6.051,1.597 L 6.08,1.611 C 5.967,2.872 5.939,4.02 5.939,5.491 L 5.939,9.441 L 7.088,9.441 L 7.088,0 L 5.855,0 L 2.858,4.791 C 2.199,5.841 1.569,6.92 1.093,7.942 L 1.051,7.928 C 1.121,6.738 1.149,5.603 1.149,4.034 L 1.149,0 L 0,0 z" />
          </g>
          <g
             transform="translate(126.9683,753.9873)"
             id="g5387">
            <path
               id="path5389"
               style="fill:#ffffff;fill-opacity:1;fill-rule:nonzero;stroke:none"
               d="M 0,0 L 0,9.441 L 1.331,9.441 L 4.356,4.665 C 5.057,3.558 5.603,2.563 6.051,1.597 L 6.08,1.611 C 5.967,2.872 5.939,4.02 5.939,5.491 L 5.939,9.441 L 7.088,9.441 L 7.088,0 L 5.855,0 L 2.858,4.791 C 2.199,5.841 1.569,6.92 1.093,7.942 L 1.051,7.928 C 1.121,6.738 1.149,5.603 1.149,4.034 L 1.149,0 L 0,0 z" />
          </g>
          <g
             transform="translate(136.9229,758.6519)"
             id="g5391">
            <path
               id="path5393"
               style="fill:#ffffff;fill-opacity:1;fill-rule:nonzero;stroke:none"
               d="M 0,0 C 0,-2.017 1.092,-3.824 3.012,-3.824 C 4.944,-3.824 6.037,-2.045 6.037,0.098 C 6.037,1.975 5.057,3.936 3.025,3.936 C 1.008,3.936 0,2.073 0,0 M 7.326,0.154 C 7.326,-3.096 5.351,-4.819 2.941,-4.819 C 0.448,-4.819 -1.303,-2.886 -1.303,-0.028 C -1.303,2.97 0.56,4.931 3.082,4.931 C 5.659,4.931 7.326,2.956 7.326,0.154" />
          </g>
          <g
             transform="translate(147.8994,753.9873)"
             id="g5395">
            <path
               id="path5397"
               style="fill:#ffffff;fill-opacity:1;fill-rule:nonzero;stroke:none"
               d="M 0,0 L -3.082,9.441 L -1.765,9.441 L -0.294,4.791 C 0.112,3.516 0.462,2.367 0.714,1.261 L 0.742,1.261 C 1.009,2.354 1.401,3.544 1.821,4.776 L 3.418,9.441 L 4.721,9.441 L 1.345,0 L 0,0 z" />
          </g>
          <g
             transform="translate(157.4629,757.9092)"
             id="g5399">
            <path
               id="path5401"
               style="fill:#ffffff;fill-opacity:1;fill-rule:nonzero;stroke:none"
               d="M 0,0 L -0.924,2.718 C -1.135,3.334 -1.274,3.895 -1.415,4.44 L -1.443,4.44 C -1.583,3.88 -1.737,3.306 -1.919,2.732 L -2.843,0 L 0,0 z M -3.096,-0.952 L -4.076,-3.922 L -5.337,-3.922 L -2.129,5.519 L -0.658,5.519 L 2.563,-3.922 L 1.261,-3.922 L 0.252,-0.952 L -3.096,-0.952 z" />
          </g>
          <g
             transform="translate(162.123,762.3916)"
             id="g5403">
            <path
               id="path5405"
               style="fill:#ffffff;fill-opacity:1;fill-rule:nonzero;stroke:none"
               d="M 0,0 L -2.872,0 L -2.872,1.037 L 4.118,1.037 L 4.118,0 L 1.233,0 L 1.233,-8.404 L 0,-8.404 L 0,0 z" />
          </g>
          <path
             id="path5407"
             style="fill:#ffffff;fill-opacity:1;fill-rule:nonzero;stroke:none"
             d="M 168.507,753.987 L 167.288,753.987 L 167.288,763.428 L 168.507,763.428 L 168.507,753.987 z" />
          <g
             transform="translate(171.377,758.6519)"
             id="g5409">
            <path
               id="path5411"
               style="fill:#ffffff;fill-opacity:1;fill-rule:nonzero;stroke:none"
               d="M 0,0 C 0,-2.017 1.092,-3.824 3.012,-3.824 C 4.944,-3.824 6.037,-2.045 6.037,0.098 C 6.037,1.975 5.057,3.936 3.025,3.936 C 1.008,3.936 0,2.073 0,0 M 7.326,0.154 C 7.326,-3.096 5.351,-4.819 2.941,-4.819 C 0.448,-4.819 -1.303,-2.886 -1.303,-0.028 C -1.303,2.97 0.56,4.931 3.082,4.931 C 5.659,4.931 7.326,2.956 7.326,0.154" />
          </g>
          <g
             transform="translate(180.2803,753.9873)"
             id="g5413">
            <path
               id="path5415"
               style="fill:#ffffff;fill-opacity:1;fill-rule:nonzero;stroke:none"
               d="M 0,0 L 0,9.441 L 1.331,9.441 L 4.356,4.665 C 5.057,3.558 5.603,2.563 6.051,1.597 L 6.08,1.611 C 5.967,2.872 5.939,4.02 5.939,5.491 L 5.939,9.441 L 7.088,9.441 L 7.088,0 L 5.855,0 L 2.857,4.791 C 2.199,5.841 1.569,6.92 1.093,7.942 L 1.051,7.928 C 1.121,6.738 1.149,5.603 1.149,4.034 L 1.149,0 L 0,0 z" />
          </g>
          <g
             transform="translate(189.3242,755.4722)"
             id="g5417">
            <path
               id="path5419"
               style="fill:#ffffff;fill-opacity:1;fill-rule:nonzero;stroke:none"
               d="M 0,0 C 0.546,-0.336 1.345,-0.616 2.185,-0.616 C 3.432,-0.616 4.16,0.042 4.16,0.995 C 4.16,1.877 3.656,2.381 2.381,2.872 C 0.84,3.418 -0.112,4.216 -0.112,5.547 C -0.112,7.018 1.106,8.11 2.941,8.11 C 3.908,8.11 4.608,7.886 5.029,7.648 L 4.692,6.653 C 4.384,6.822 3.754,7.102 2.899,7.102 C 1.611,7.102 1.121,6.332 1.121,5.687 C 1.121,4.805 1.695,4.37 2.998,3.866 C 4.595,3.25 5.407,2.479 5.407,1.092 C 5.407,-0.364 4.328,-1.639 2.101,-1.639 C 1.19,-1.639 0.196,-1.359 -0.308,-1.022 L 0,0 z" />
          </g>
        </g>
      </g>
    </g>
  </g>
</svg>
